<svg id="svg" version="1.1" xmlns="http://www.w3.org/2000/svg" xmlns:xlink="http://www.w3.org/1999/xlink" width="400" height="82.97455968688845" viewBox="0, 0, 400,82.97455968688845"><g id="svgg"><path id="path0" d="M205.333 3.505 C 198.141 4.440,196.544 14.102,203.052 17.306 C 207.196 19.346,212.158 17.174,213.422 12.768 C 214.890 7.655,210.661 2.813,205.333 3.505 M231.750 3.492 C 230.270 3.771,229.044 4.710,228.327 6.114 L 227.917 6.917 227.867 16.437 L 227.818 25.957 225.617 26.042 C 221.592 26.198,220.000 27.473,220.000 30.540 C 220.000 33.636,221.655 34.967,225.704 35.127 L 227.824 35.211 227.871 55.314 L 227.917 75.417 228.364 76.372 C 229.558 78.918,234.042 79.446,236.030 77.274 C 237.036 76.176,237.000 76.988,237.000 55.145 L 237.000 35.183 244.042 35.133 C 250.769 35.086,251.117 35.068,251.833 34.736 C 254.847 33.341,255.019 28.172,252.105 26.557 L 251.250 26.083 244.123 26.033 L 236.996 25.983 237.040 19.283 L 237.083 12.583 245.167 12.500 C 252.479 12.425,253.313 12.388,253.914 12.117 C 256.952 10.747,257.028 5.266,254.030 3.860 L 253.083 3.417 242.750 3.391 C 237.067 3.377,232.117 3.422,231.750 3.492 M326.413 3.496 C 324.805 3.736,323.940 4.364,323.298 5.756 L 322.917 6.583 322.917 41.000 C 322.917 79.851,322.789 76.302,324.237 77.637 C 325.327 78.642,325.817 78.701,332.583 78.638 C 340.132 78.567,340.695 78.312,341.265 74.704 C 341.842 71.053,339.735 69.519,334.127 69.505 L 332.003 69.500 331.960 37.875 L 331.917 6.250 331.524 5.452 C 330.767 3.916,328.757 3.147,326.413 3.496 M391.077 3.507 C 389.636 3.704,388.703 4.304,388.107 5.417 C 387.756 6.071,387.749 6.261,387.667 16.000 L 387.583 25.917 376.167 26.011 C 365.406 26.100,364.649 26.126,363.000 26.459 C 354.201 28.237,350.000 32.934,349.321 41.750 C 349.004 45.861,349.198 71.173,349.556 72.417 C 350.287 74.959,351.618 76.615,353.708 77.579 C 355.900 78.591,355.012 78.551,376.710 78.618 L 396.670 78.679 396.626 42.368 L 396.583 6.057 396.083 5.237 C 395.239 3.851,393.343 3.196,391.077 3.507 M7.333 5.787 C 6.707 6.022,6.121 6.598,5.704 7.390 L 5.250 8.250 5.250 42.083 L 5.250 75.917 5.713 76.704 C 7.213 79.255,12.121 79.255,13.621 76.704 L 14.083 75.917 14.127 49.006 C 14.151 34.206,14.232 22.035,14.306 21.960 C 14.381 21.886,17.549 25.780,21.346 30.614 C 25.143 35.448,29.000 40.350,29.917 41.508 C 30.833 42.666,32.183 44.389,32.917 45.337 C 34.911 47.915,35.101 48.108,36.204 48.659 C 37.626 49.369,38.879 49.367,40.311 48.651 C 41.566 48.025,41.230 48.427,48.830 38.417 C 49.804 37.133,52.651 33.383,55.156 30.083 C 57.661 26.783,59.888 23.898,60.105 23.670 L 60.500 23.258 60.500 48.993 C 60.500 78.036,60.415 76.090,61.746 77.422 C 63.326 79.002,66.867 79.010,68.440 77.437 C 69.774 76.103,69.677 79.013,69.627 41.741 L 69.583 8.583 69.200 7.752 C 68.461 6.148,67.692 5.666,65.880 5.668 C 63.423 5.672,62.578 6.426,57.290 13.341 C 53.680 18.063,50.549 22.137,45.764 28.344 C 44.381 30.137,42.125 33.077,40.750 34.877 C 39.375 36.677,38.175 38.151,38.083 38.152 C 37.992 38.153,35.104 34.699,31.667 30.477 C 28.229 26.255,25.339 22.714,25.243 22.609 C 25.030 22.372,19.558 15.672,15.063 10.144 C 11.861 6.206,9.604 4.934,7.333 5.787 M85.917 26.172 C 83.369 26.691,82.252 28.035,82.252 30.583 C 82.252 32.856,82.921 33.874,84.956 34.695 L 85.917 35.083 102.212 35.130 L 118.507 35.178 118.462 38.714 L 118.417 42.250 116.667 42.617 C 112.685 43.453,109.522 44.102,102.167 45.592 C 87.075 48.649,87.229 48.609,85.290 49.934 C 83.980 50.830,83.039 51.866,82.355 53.167 C 81.428 54.932,81.417 55.080,81.417 65.583 L 81.417 75.250 81.870 76.110 C 82.120 76.583,82.645 77.232,83.037 77.552 C 84.478 78.730,83.219 78.673,106.670 78.626 L 127.750 78.583 127.797 56.917 C 127.828 42.641,127.786 34.799,127.672 33.928 C 127.200 30.321,124.074 26.781,120.813 26.163 C 119.767 25.964,86.893 25.973,85.917 26.172 M139.041 50.702 C 139.079 70.525,139.132 75.544,139.307 76.059 C 140.501 79.573,147.070 79.375,147.971 75.797 C 148.115 75.223,148.167 69.799,148.167 55.089 L 148.167 35.159 160.708 35.204 L 173.250 35.250 174.126 35.646 C 175.079 36.077,175.836 36.828,176.292 37.798 C 176.562 38.372,176.589 39.757,176.667 56.917 L 176.750 75.417 177.188 76.351 C 178.794 79.776,184.882 79.239,185.671 75.603 C 185.803 74.996,185.839 69.277,185.795 55.750 L 185.734 36.750 185.357 35.417 C 183.977 30.528,181.065 27.669,176.250 26.475 C 174.753 26.104,174.714 26.103,156.872 26.045 L 138.994 25.987 139.041 50.702 M196.722 26.155 C 194.752 26.642,193.757 28.069,193.753 30.417 C 193.746 34.117,195.174 35.167,200.215 35.167 L 202.824 35.167 202.871 55.292 L 202.917 75.417 203.355 76.351 C 204.943 79.739,210.881 79.309,211.884 75.734 C 212.297 74.265,212.320 30.244,211.910 28.861 C 211.607 27.841,210.882 26.957,209.932 26.449 C 209.213 26.063,198.093 25.816,196.722 26.155 M278.917 26.117 C 270.803 26.854,266.115 31.008,264.566 38.833 C 264.213 40.617,264.017 61.132,264.323 64.277 C 265.130 72.576,269.506 77.167,277.750 78.365 C 279.824 78.667,295.766 78.673,297.946 78.373 C 305.749 77.300,310.373 72.912,311.422 65.583 C 311.762 63.210,311.769 42.001,311.431 39.667 C 310.261 31.595,305.423 27.022,297.154 26.173 C 295.616 26.016,280.545 25.969,278.917 26.117 M298.250 35.554 C 300.048 36.211,301.335 37.444,302.054 39.199 C 302.415 40.080,302.417 40.132,302.417 52.583 L 302.417 65.083 302.050 65.870 C 300.515 69.161,299.243 69.487,287.917 69.493 C 276.528 69.499,275.186 69.142,273.814 65.736 L 273.417 64.750 273.368 53.360 C 273.341 46.816,273.387 41.486,273.478 40.832 C 273.879 37.934,275.486 36.105,278.250 35.401 C 279.721 35.026,297.170 35.160,298.250 35.554 M387.583 52.333 L 387.583 69.417 373.000 69.417 L 358.417 69.417 358.417 56.000 C 358.417 41.161,358.381 41.698,359.506 39.390 C 360.106 38.159,361.581 36.722,362.873 36.111 C 364.765 35.216,365.171 35.190,376.833 35.221 L 387.583 35.250 387.583 52.333 M118.500 60.333 L 118.500 69.500 104.500 69.500 L 90.500 69.500 90.500 63.087 L 90.500 56.673 90.875 56.596 C 91.081 56.554,91.625 56.442,92.083 56.347 C 92.542 56.252,95.767 55.609,99.250 54.918 C 102.733 54.227,108.321 53.107,111.667 52.429 C 115.013 51.750,117.919 51.189,118.125 51.181 L 118.500 51.167 118.500 60.333 " stroke="none" fill="#050505" fill-rule="evenodd"></path><path id="path1" d="M0.000 41.417 L 0.000 82.833 200.000 82.833 L 400.000 82.833 400.000 41.417 L 400.000 0.000 200.000 0.000 L 0.000 0.000 0.000 41.417 M207.565 3.329 C 213.558 4.311,215.958 11.727,211.671 16.021 C 207.338 20.361,199.796 17.928,198.814 11.874 C 198.008 6.906,202.517 2.503,207.565 3.329 M253.702 3.491 C 256.971 4.693,257.387 10.341,254.333 12.066 L 253.417 12.583 245.292 12.632 L 237.167 12.681 237.167 19.257 L 237.167 25.833 243.715 25.833 C 250.914 25.833,251.718 25.919,252.822 26.808 C 255.131 28.667,254.669 33.490,252.058 34.771 L 251.083 35.250 244.125 35.299 L 237.167 35.347 237.167 55.319 C 237.167 77.078,237.212 76.003,236.237 77.282 C 234.888 79.050,230.462 79.166,228.885 77.475 C 227.769 76.277,227.841 77.787,227.837 55.458 L 227.833 35.333 226.194 35.333 C 221.820 35.333,219.943 33.936,219.925 30.667 C 219.906 27.279,221.365 26.073,225.750 25.851 L 227.750 25.750 227.833 16.167 C 227.912 7.147,227.935 6.549,228.234 6.000 C 229.018 4.559,229.953 3.765,231.299 3.397 C 232.461 3.079,252.812 3.165,253.702 3.491 M329.934 3.738 C 330.856 4.159,331.570 4.954,331.929 5.958 C 332.112 6.472,332.153 12.180,332.159 37.938 L 332.167 69.292 335.125 69.372 C 339.991 69.504,341.328 70.504,341.332 74.021 C 341.334 76.375,340.727 77.589,339.182 78.313 L 338.250 78.750 332.000 78.750 C 324.990 78.750,324.723 78.707,323.749 77.430 C 322.773 76.150,322.833 78.567,322.833 40.984 L 322.833 6.510 323.223 5.629 C 323.838 4.238,324.688 3.627,326.500 3.274 C 327.327 3.114,329.088 3.351,329.934 3.738 M394.178 3.523 C 395.634 3.959,396.539 5.182,396.833 7.111 C 396.950 7.881,396.992 19.644,396.962 43.417 L 396.917 78.583 376.951 78.626 C 355.053 78.672,355.739 78.700,353.562 77.681 C 351.521 76.726,350.255 75.178,349.560 72.788 L 349.167 71.434 349.167 56.062 C 349.167 41.479,349.183 40.607,349.492 39.054 C 350.988 31.539,355.283 27.629,363.583 26.226 C 365.001 25.987,366.913 25.935,376.370 25.878 L 387.490 25.812 387.537 15.948 C 387.588 5.001,387.524 5.633,388.714 4.379 C 389.733 3.305,392.174 2.923,394.178 3.523 M10.756 5.894 C 11.974 6.461,13.424 7.884,15.958 11.000 C 17.189 12.512,18.341 13.922,18.519 14.132 C 18.697 14.342,19.497 15.323,20.297 16.311 C 30.732 29.212,38.072 37.998,38.250 37.801 C 38.534 37.488,41.533 33.600,50.310 22.167 C 51.823 20.196,53.819 17.608,54.746 16.417 C 55.673 15.225,57.501 12.847,58.810 11.132 C 62.462 6.344,63.687 5.408,66.136 5.529 C 68.119 5.628,69.057 6.414,69.575 8.410 C 69.898 9.653,69.974 74.159,69.655 75.650 C 68.821 79.537,61.932 79.840,60.636 76.046 C 60.466 75.547,60.404 70.058,60.336 49.539 L 60.250 23.662 53.583 32.425 C 49.917 37.245,45.884 42.553,44.622 44.220 C 42.006 47.674,41.024 48.680,39.896 49.065 C 38.370 49.584,36.587 49.321,35.375 48.396 C 34.743 47.914,33.910 46.873,20.833 30.225 L 14.417 22.056 14.333 48.986 L 14.250 75.917 13.891 76.583 C 12.572 79.034,7.763 79.497,5.954 77.347 C 4.920 76.119,4.988 78.724,5.038 41.833 L 5.083 8.250 5.450 7.496 C 6.383 5.573,8.618 4.899,10.756 5.894 M121.076 26.089 C 124.422 26.960,127.347 30.278,127.831 33.750 C 127.930 34.459,127.995 43.500,127.997 56.792 L 128.000 78.667 106.375 78.665 L 84.750 78.663 83.917 78.269 C 82.945 77.809,82.186 77.053,81.640 76.000 L 81.250 75.250 81.202 66.083 C 81.141 54.214,81.257 53.537,83.786 51.017 C 85.918 48.893,86.835 48.544,94.110 47.086 C 97.121 46.482,100.108 45.873,100.750 45.732 C 101.392 45.591,102.404 45.368,103.000 45.237 C 103.596 45.107,106.896 44.436,110.333 43.748 C 113.771 43.059,116.977 42.416,117.458 42.319 L 118.333 42.143 118.333 38.738 L 118.333 35.333 102.625 35.327 C 86.177 35.321,85.733 35.303,84.333 34.592 C 82.860 33.844,81.994 32.333,82.007 30.535 C 82.026 27.955,83.575 26.345,86.417 25.952 C 88.092 25.721,120.149 25.847,121.076 26.089 M176.031 26.292 C 181.451 27.622,184.239 30.364,185.547 35.650 C 186.039 37.637,186.215 74.451,185.740 75.917 C 184.531 79.649,178.067 79.709,176.793 76.000 C 176.644 75.566,176.570 70.709,176.505 57.000 C 176.406 36.383,176.499 37.866,175.233 36.601 C 173.994 35.362,174.698 35.422,160.792 35.370 L 148.333 35.323 148.333 54.972 C 148.333 75.471,148.321 75.831,147.592 76.986 C 145.935 79.611,140.609 79.202,139.274 76.346 L 138.917 75.583 138.871 50.923 C 138.845 37.360,138.863 26.163,138.910 26.041 C 139.077 25.605,174.201 25.843,176.031 26.292 M210.091 26.420 C 211.151 26.962,211.702 27.615,212.042 28.734 C 212.360 29.777,212.344 74.762,212.025 75.857 C 210.971 79.484,204.633 79.761,203.051 76.250 C 202.767 75.621,202.747 74.437,202.704 55.458 L 202.659 35.333 200.121 35.331 C 194.654 35.327,192.620 33.283,193.753 28.931 C 194.495 26.084,195.280 25.832,203.262 25.881 L 209.108 25.917 210.091 26.420 M299.083 26.295 C 306.278 27.743,310.052 31.591,311.522 38.982 C 311.793 40.341,311.920 62.169,311.672 64.583 C 310.899 72.096,307.200 76.440,300.136 78.132 L 298.250 78.583 287.917 78.583 L 277.583 78.583 275.697 78.132 C 269.352 76.612,265.874 73.070,264.438 66.667 C 263.938 64.433,263.883 41.229,264.373 38.833 C 266.037 30.696,270.337 26.990,279.333 25.941 C 281.496 25.689,297.496 25.975,299.083 26.295 M278.630 35.505 C 275.998 35.949,274.132 37.828,273.671 40.501 C 273.541 41.250,273.499 45.175,273.534 53.254 L 273.583 64.924 274.132 66.038 C 275.617 69.054,276.758 69.327,287.917 69.327 C 299.072 69.327,300.358 69.015,301.765 65.968 L 302.250 64.917 302.301 53.167 C 302.354 40.999,302.322 40.279,301.664 38.744 C 300.954 37.088,299.186 35.843,297.044 35.493 C 295.895 35.304,279.756 35.315,278.630 35.505 M365.567 35.500 C 362.806 35.904,360.795 37.265,359.674 39.486 C 358.560 41.693,358.583 41.336,358.583 56.000 L 358.583 69.250 373.042 69.293 L 387.500 69.335 387.500 52.334 L 387.500 35.333 376.958 35.354 C 371.160 35.366,366.034 35.431,365.567 35.500 M108.750 53.188 C 103.800 54.187,99.412 55.070,99.000 55.148 C 97.059 55.518,91.218 56.697,90.958 56.772 C 90.687 56.850,90.667 57.296,90.667 63.095 L 90.667 69.333 104.500 69.333 L 118.333 69.333 118.333 60.333 C 118.333 51.866,118.316 51.334,118.042 51.352 C 117.881 51.362,113.700 52.188,108.750 53.188 " stroke="none" fill="#fbfbfb" fill-rule="evenodd"></path><path id="path2" d="M148.247 55.000 C 148.247 65.771,148.267 70.177,148.292 64.792 C 148.316 59.406,148.316 50.594,148.292 45.208 C 148.267 39.823,148.247 44.229,148.247 55.000 M90.576 63.083 C 90.576 66.567,90.598 68.015,90.625 66.303 C 90.652 64.590,90.652 61.740,90.625 59.969 C 90.598 58.199,90.576 59.600,90.576 63.083 M104.583 69.333 L 90.750 69.420 104.532 69.460 C 113.584 69.486,118.349 69.443,118.417 69.333 C 118.473 69.242,118.496 69.185,118.468 69.207 C 118.440 69.229,112.192 69.286,104.583 69.333 M284.303 69.458 C 286.349 69.485,289.649 69.485,291.636 69.458 C 293.624 69.432,291.950 69.410,287.917 69.410 C 283.883 69.410,282.257 69.432,284.303 69.458 M365.792 69.458 C 369.756 69.483,376.244 69.483,380.208 69.458 C 384.173 69.433,380.929 69.413,373.000 69.413 C 365.071 69.413,361.827 69.433,365.792 69.458 " stroke="none" fill="#7c7c7c" fill-rule="evenodd"></path><path id="path3" d="M205.958 3.284 C 206.165 3.324,206.502 3.324,206.708 3.284 C 206.915 3.245,206.746 3.212,206.333 3.212 C 205.921 3.212,205.752 3.245,205.958 3.284 M237.042 3.292 C 239.860 3.317,244.473 3.317,247.292 3.292 C 250.110 3.266,247.804 3.245,242.167 3.245 C 236.529 3.245,234.223 3.266,237.042 3.292 M327.125 3.284 C 327.331 3.324,327.669 3.324,327.875 3.284 C 328.081 3.245,327.912 3.212,327.500 3.212 C 327.087 3.212,326.919 3.245,327.125 3.284 M391.792 3.284 C 391.998 3.324,392.335 3.324,392.542 3.284 C 392.748 3.245,392.579 3.212,392.167 3.212 C 391.754 3.212,391.585 3.245,391.792 3.284 M395.167 4.052 C 395.167 4.081,395.410 4.325,395.708 4.594 L 396.250 5.083 395.760 4.542 C 395.304 4.037,395.167 3.923,395.167 4.052 M200.833 5.583 C 200.428 5.996,200.135 6.333,200.181 6.333 C 200.226 6.333,200.595 5.996,201.000 5.583 C 201.405 5.171,201.699 4.833,201.653 4.833 C 201.607 4.833,201.238 5.171,200.833 5.583 M211.660 5.542 C 212.350 6.278,212.500 6.410,212.500 6.285 C 212.500 6.258,212.144 5.902,211.708 5.493 L 210.917 4.750 211.660 5.542 M396.915 43.083 C 396.915 62.608,396.935 70.571,396.958 60.778 C 396.982 50.986,396.982 35.011,396.958 25.278 C 396.935 15.546,396.915 23.558,396.915 43.083 M198.717 10.667 C 198.717 11.171,198.748 11.377,198.786 11.125 C 198.824 10.873,198.824 10.460,198.786 10.208 C 198.748 9.956,198.717 10.162,198.717 10.667 M199.167 13.397 C 199.167 13.576,199.663 14.500,199.759 14.500 C 199.804 14.500,199.718 14.256,199.566 13.958 C 199.257 13.350,199.167 13.223,199.167 13.397 M200.826 15.875 C 201.235 16.310,201.591 16.667,201.618 16.667 C 201.743 16.667,201.611 16.517,200.875 15.826 L 200.083 15.083 200.826 15.875 M211.575 16.042 L 210.917 16.750 211.625 16.091 C 212.015 15.729,212.333 15.410,212.333 15.383 C 212.333 15.257,212.188 15.383,211.575 16.042 M60.292 39.958 C 60.315 49.010,60.353 60.579,60.377 65.667 C 60.400 70.754,60.438 63.348,60.460 49.208 C 60.482 35.069,60.444 23.500,60.375 23.500 C 60.306 23.500,60.269 30.906,60.292 39.958 M226.000 25.833 L 224.250 25.935 225.948 25.967 C 226.938 25.986,227.690 25.930,227.750 25.833 C 227.807 25.742,227.830 25.681,227.802 25.699 C 227.773 25.717,226.963 25.778,226.000 25.833 M95.221 25.958 C 99.880 25.983,107.455 25.983,112.054 25.958 C 116.654 25.934,112.842 25.914,103.583 25.914 C 94.325 25.914,90.562 25.934,95.221 25.958 M138.910 26.042 C 138.867 26.156,138.851 37.125,138.874 50.417 L 138.918 74.583 138.959 50.292 L 139.000 26.002 156.125 25.958 L 173.250 25.915 156.120 25.874 C 142.539 25.842,138.973 25.876,138.910 26.042 M200.031 25.958 C 201.561 25.985,204.111 25.986,205.698 25.958 C 207.285 25.931,206.033 25.908,202.917 25.908 C 199.800 25.908,198.501 25.931,200.031 25.958 M240.531 25.958 C 242.335 25.985,245.335 25.985,247.197 25.958 C 249.060 25.931,247.583 25.909,243.917 25.909 C 240.250 25.909,238.726 25.931,240.531 25.958 M283.792 25.958 C 286.015 25.984,289.652 25.984,291.875 25.958 C 294.098 25.932,292.279 25.910,287.833 25.910 C 283.387 25.910,281.569 25.932,283.792 25.958 M371.792 25.958 C 374.656 25.984,379.344 25.984,382.208 25.958 C 385.073 25.933,382.729 25.912,377.000 25.912 C 371.271 25.912,368.927 25.933,371.792 25.958 M220.906 27.375 L 220.417 27.917 220.958 27.427 C 221.463 26.971,221.577 26.833,221.448 26.833 C 221.419 26.833,221.175 27.077,220.906 27.375 M307.160 30.208 C 307.850 30.944,308.000 31.077,308.000 30.951 C 308.000 30.925,307.644 30.568,307.208 30.160 L 306.417 29.417 307.160 30.208 M193.552 30.583 C 193.553 31.133,193.584 31.338,193.621 31.039 C 193.658 30.739,193.657 30.289,193.619 30.039 C 193.581 29.788,193.551 30.033,193.552 30.583 M212.248 52.250 C 212.248 64.625,212.267 69.712,212.292 63.555 C 212.316 57.397,212.316 47.272,212.292 41.055 C 212.267 34.837,212.248 39.875,212.248 52.250 M219.881 30.583 C 219.882 31.042,219.915 31.209,219.953 30.956 C 219.991 30.703,219.990 30.328,219.951 30.123 C 219.911 29.918,219.880 30.125,219.881 30.583 M254.212 30.500 C 254.212 30.912,254.245 31.081,254.284 30.875 C 254.324 30.669,254.324 30.331,254.284 30.125 C 254.245 29.919,254.212 30.087,254.212 30.500 M268.324 30.458 L 267.750 31.083 268.375 30.509 C 268.957 29.974,269.077 29.833,268.949 29.833 C 268.922 29.833,268.640 30.115,268.324 30.458 M82.042 31.083 C 82.044 31.450,82.078 31.580,82.118 31.373 C 82.158 31.166,82.156 30.866,82.115 30.706 C 82.073 30.547,82.040 30.717,82.042 31.083 M127.914 56.583 C 127.914 68.775,127.934 73.738,127.958 67.612 C 127.983 61.486,127.983 51.511,127.958 45.445 C 127.934 39.380,127.914 44.392,127.914 56.583 M102.455 35.291 L 118.326 35.335 118.377 38.668 L 118.427 42.000 118.422 38.625 L 118.417 35.250 102.500 35.249 L 86.583 35.247 102.455 35.291 M154.304 35.292 C 157.634 35.317,163.034 35.317,166.304 35.292 C 169.574 35.266,166.850 35.246,160.250 35.246 C 153.650 35.246,150.974 35.266,154.304 35.292 M199.958 35.289 L 202.665 35.342 202.709 55.087 L 202.752 74.833 202.751 55.042 L 202.750 35.250 200.000 35.243 L 197.250 35.237 199.958 35.289 M225.048 35.290 C 225.578 35.323,226.403 35.323,226.881 35.289 C 227.359 35.256,226.925 35.229,225.917 35.229 C 224.908 35.229,224.517 35.257,225.048 35.290 M240.553 35.292 C 242.461 35.318,245.536 35.318,247.386 35.291 C 249.236 35.265,247.675 35.243,243.917 35.243 C 240.158 35.243,238.645 35.265,240.553 35.292 M283.780 35.291 C 285.997 35.318,289.672 35.318,291.947 35.292 C 294.222 35.265,292.408 35.244,287.917 35.244 C 283.425 35.244,281.564 35.265,283.780 35.291 M372.137 35.292 C 375.008 35.317,379.658 35.317,382.470 35.292 C 385.282 35.266,382.933 35.245,377.250 35.245 C 371.567 35.245,369.266 35.266,372.137 35.292 M185.875 38.583 C 185.877 38.950,185.911 39.080,185.951 38.873 C 185.991 38.666,185.990 38.366,185.948 38.206 C 185.906 38.047,185.874 38.217,185.875 38.583 M176.580 57.167 C 176.580 66.929,176.600 70.923,176.625 66.042 C 176.650 61.160,176.650 53.173,176.625 48.292 C 176.600 43.410,176.580 47.404,176.580 57.167 M264.079 52.667 C 264.079 58.946,264.100 61.515,264.125 58.375 C 264.150 55.235,264.150 50.098,264.125 46.958 C 264.100 43.819,264.079 46.387,264.079 52.667 M302.412 52.667 C 302.412 58.854,302.433 61.385,302.458 58.292 C 302.484 55.198,302.484 50.135,302.458 47.042 C 302.433 43.948,302.412 46.479,302.412 52.667 M311.705 42.000 C 311.705 42.321,311.740 42.452,311.782 42.292 C 311.823 42.131,311.823 41.869,311.782 41.708 C 311.740 41.548,311.705 41.679,311.705 42.000 M273.412 52.667 C 273.412 58.212,273.433 60.481,273.458 57.708 C 273.484 54.935,273.484 50.398,273.458 47.625 C 273.433 44.852,273.412 47.121,273.412 52.667 M358.539 43.333 C 358.539 43.654,358.573 43.785,358.615 43.625 C 358.657 43.465,358.657 43.202,358.615 43.042 C 358.573 42.881,358.539 43.012,358.539 43.333 M118.124 51.288 C 118.283 51.401,118.341 53.482,118.376 60.342 L 118.421 69.250 118.419 60.264 C 118.417 52.419,118.385 51.269,118.167 51.210 C 117.983 51.159,117.972 51.180,118.124 51.288 M81.245 65.583 C 81.245 70.717,81.266 72.841,81.292 70.304 C 81.317 67.766,81.317 63.566,81.292 60.970 C 81.266 58.374,81.245 60.450,81.245 65.583 M311.705 63.333 C 311.705 63.654,311.740 63.785,311.782 63.625 C 311.823 63.465,311.823 63.202,311.782 63.042 C 311.740 62.881,311.705 63.012,311.705 63.333 M278.875 69.282 C 279.035 69.323,279.298 69.323,279.458 69.282 C 279.619 69.240,279.487 69.205,279.167 69.205 C 278.846 69.205,278.715 69.240,278.875 69.282 M333.375 69.457 C 334.085 69.488,335.248 69.488,335.958 69.457 C 336.669 69.426,336.087 69.400,334.667 69.400 C 333.246 69.400,332.665 69.426,333.375 69.457 M307.406 74.375 L 306.917 74.917 307.458 74.427 C 307.756 74.158,308.000 73.914,308.000 73.885 C 308.000 73.757,307.862 73.870,307.406 74.375 M5.667 77.052 C 5.667 77.081,5.910 77.325,6.208 77.594 L 6.750 78.083 6.260 77.542 C 5.804 77.037,5.667 76.923,5.667 77.052 M13.073 77.542 L 12.583 78.083 13.125 77.594 C 13.423 77.325,13.667 77.081,13.667 77.052 C 13.667 76.923,13.529 77.037,13.073 77.542 " stroke="none" fill="#9e9e9e" fill-rule="evenodd"></path><path id="path4" d="M205.375 3.448 C 205.535 3.490,205.798 3.490,205.958 3.448 C 206.119 3.406,205.987 3.372,205.667 3.372 C 205.346 3.372,205.215 3.406,205.375 3.448 M206.875 3.448 C 207.035 3.490,207.298 3.490,207.458 3.448 C 207.619 3.406,207.487 3.372,207.167 3.372 C 206.846 3.372,206.715 3.406,206.875 3.448 M252.208 3.448 C 252.369 3.490,252.631 3.490,252.792 3.448 C 252.952 3.406,252.821 3.372,252.500 3.372 C 252.179 3.372,252.048 3.406,252.208 3.448 M326.375 3.448 C 326.535 3.490,326.798 3.490,326.958 3.448 C 327.119 3.406,326.987 3.372,326.667 3.372 C 326.346 3.372,326.215 3.406,326.375 3.448 M391.042 3.448 C 391.202 3.490,391.465 3.490,391.625 3.448 C 391.785 3.406,391.654 3.372,391.333 3.372 C 391.012 3.372,390.881 3.406,391.042 3.448 M392.542 3.448 C 392.702 3.490,392.965 3.490,393.125 3.448 C 393.285 3.406,393.154 3.372,392.833 3.372 C 392.512 3.372,392.381 3.406,392.542 3.448 M8.377 5.620 C 8.631 5.658,9.006 5.657,9.211 5.617 C 9.416 5.578,9.208 5.546,8.750 5.548 C 8.292 5.549,8.124 5.581,8.377 5.620 M65.544 5.620 C 65.797 5.658,66.172 5.657,66.377 5.617 C 66.582 5.578,66.375 5.546,65.917 5.548 C 65.458 5.549,65.291 5.581,65.544 5.620 M322.872 7.500 C 322.872 7.821,322.906 7.952,322.948 7.792 C 322.990 7.631,322.990 7.369,322.948 7.208 C 322.906 7.048,322.872 7.179,322.872 7.500 M256.214 7.917 C 256.216 8.375,256.248 8.543,256.286 8.289 C 256.325 8.036,256.324 7.661,256.284 7.456 C 256.244 7.251,256.213 7.458,256.214 7.917 M387.578 16.500 C 387.578 21.679,387.599 23.798,387.625 21.208 C 387.651 18.619,387.651 14.381,387.625 11.792 C 387.599 9.202,387.578 11.321,387.578 16.500 M396.748 42.917 C 396.748 62.625,396.768 70.712,396.792 60.888 C 396.815 51.064,396.815 34.939,396.792 25.055 C 396.768 15.171,396.748 23.208,396.748 42.917 M332.082 38.417 C 332.082 55.558,332.101 62.546,332.125 53.945 C 332.149 45.344,332.149 31.319,332.125 22.778 C 332.101 14.238,332.082 21.275,332.082 38.417 M5.082 42.167 C 5.082 60.179,5.101 67.548,5.125 58.542 C 5.149 49.535,5.149 34.798,5.125 25.792 C 5.101 16.785,5.082 24.154,5.082 42.167 M213.705 10.667 C 213.705 10.987,213.740 11.119,213.782 10.958 C 213.823 10.798,213.823 10.535,213.782 10.375 C 213.740 10.215,213.705 10.346,213.705 10.667 M69.748 42.250 C 69.748 59.850,69.768 67.025,69.792 58.195 C 69.815 49.365,69.815 34.965,69.792 26.195 C 69.768 17.425,69.748 24.650,69.748 42.250 M198.872 11.500 C 198.872 11.821,198.906 11.952,198.948 11.792 C 198.990 11.631,198.990 11.369,198.948 11.208 C 198.906 11.048,198.872 11.179,198.872 11.500 M237.076 12.709 C 237.032 12.823,237.017 15.880,237.042 19.500 L 237.087 26.083 237.127 19.377 L 237.167 12.670 244.708 12.625 L 252.250 12.580 244.703 12.540 C 238.783 12.509,237.139 12.545,237.076 12.709 M14.244 22.042 C 14.200 22.156,14.184 34.100,14.208 48.583 L 14.251 74.917 14.292 48.438 C 14.331 23.247,14.348 21.970,14.625 22.188 C 14.889 22.395,14.895 22.389,14.688 22.125 C 14.416 21.778,14.349 21.766,14.244 22.042 M210.500 26.719 C 210.500 26.748,210.744 26.991,211.042 27.260 L 211.583 27.750 211.094 27.208 C 210.638 26.703,210.500 26.590,210.500 26.719 M124.750 28.333 C 125.108 28.700,125.438 29.000,125.484 29.000 C 125.530 29.000,125.275 28.700,124.917 28.333 C 124.559 27.967,124.228 27.667,124.182 27.667 C 124.137 27.667,124.392 27.967,124.750 28.333 M182.167 29.583 C 182.478 29.904,182.770 30.167,182.815 30.167 C 182.861 30.167,182.644 29.904,182.333 29.583 C 182.022 29.262,181.730 29.000,181.685 29.000 C 181.639 29.000,181.856 29.262,182.167 29.583 M353.575 30.875 L 352.917 31.583 353.625 30.925 C 354.284 30.312,354.410 30.167,354.284 30.167 C 354.257 30.167,353.938 30.485,353.575 30.875 M252.906 34.042 L 252.417 34.583 252.958 34.094 C 253.463 33.638,253.577 33.500,253.448 33.500 C 253.419 33.500,253.175 33.744,252.906 34.042 M237.081 54.917 C 237.081 65.825,237.101 70.263,237.125 64.779 C 237.149 59.295,237.149 50.370,237.125 44.945 C 237.101 39.521,237.081 44.008,237.081 54.917 M387.500 52.367 C 387.454 61.781,387.473 69.427,387.542 69.358 C 387.612 69.288,387.649 61.586,387.626 52.241 L 387.583 35.250 387.500 52.367 M174.833 36.052 C 174.833 36.081,175.077 36.325,175.375 36.594 L 175.917 37.083 175.427 36.542 C 174.971 36.037,174.833 35.923,174.833 36.052 M185.914 57.083 C 185.914 66.708,185.934 70.621,185.958 65.779 C 185.983 60.936,185.983 53.061,185.958 48.279 C 185.934 43.496,185.914 47.458,185.914 57.083 M264.205 41.333 C 264.205 41.654,264.240 41.785,264.282 41.625 C 264.323 41.465,264.323 41.202,264.282 41.042 C 264.240 40.881,264.205 41.012,264.205 41.333 M349.209 42.083 C 349.211 42.450,349.245 42.580,349.285 42.373 C 349.324 42.166,349.323 41.866,349.281 41.706 C 349.239 41.547,349.207 41.717,349.209 42.083 M311.745 52.667 C 311.745 57.938,311.766 60.094,311.792 57.458 C 311.817 54.823,311.817 50.510,311.792 47.875 C 311.766 45.240,311.745 47.396,311.745 52.667 M358.372 56.448 C 358.351 63.524,358.390 69.348,358.458 69.391 C 358.572 69.461,358.570 60.101,358.455 48.167 C 358.431 45.646,358.394 49.373,358.372 56.448 M279.625 69.451 C 279.831 69.491,280.169 69.491,280.375 69.451 C 280.581 69.411,280.412 69.379,280.000 69.379 C 279.587 69.379,279.419 69.411,279.625 69.451 M295.460 69.451 C 295.668 69.491,295.968 69.490,296.127 69.448 C 296.286 69.406,296.117 69.374,295.750 69.375 C 295.383 69.377,295.253 69.411,295.460 69.451 M336.875 69.615 C 337.035 69.657,337.298 69.657,337.458 69.615 C 337.619 69.573,337.487 69.539,337.167 69.539 C 336.846 69.539,336.715 69.573,336.875 69.615 M349.209 70.250 C 349.211 70.617,349.245 70.747,349.285 70.540 C 349.324 70.332,349.323 70.032,349.281 69.873 C 349.239 69.714,349.207 69.883,349.209 70.250 M307.410 74.208 L 306.583 75.083 307.458 74.256 C 307.940 73.801,308.333 73.408,308.333 73.381 C 308.333 73.257,308.179 73.395,307.410 74.208 M268.250 74.167 C 268.608 74.533,268.938 74.833,268.984 74.833 C 269.030 74.833,268.775 74.533,268.417 74.167 C 268.059 73.800,267.728 73.500,267.682 73.500 C 267.637 73.500,267.892 73.800,268.250 74.167 M322.872 74.667 C 322.872 74.987,322.906 75.119,322.948 74.958 C 322.990 74.798,322.990 74.535,322.948 74.375 C 322.906 74.215,322.872 74.346,322.872 74.667 M184.573 77.542 L 184.083 78.083 184.625 77.594 C 185.130 77.138,185.243 77.000,185.115 77.000 C 185.086 77.000,184.842 77.244,184.573 77.542 M279.708 78.615 C 279.869 78.657,280.131 78.657,280.292 78.615 C 280.452 78.573,280.321 78.539,280.000 78.539 C 279.679 78.539,279.548 78.573,279.708 78.615 M295.542 78.615 C 295.702 78.657,295.965 78.657,296.125 78.615 C 296.285 78.573,296.154 78.539,295.833 78.539 C 295.512 78.539,295.381 78.573,295.542 78.615 M329.542 78.791 C 330.894 78.819,333.106 78.819,334.458 78.791 C 335.810 78.763,334.704 78.740,332.000 78.740 C 329.296 78.740,328.190 78.763,329.542 78.791 " stroke="none" fill="#747474" fill-rule="evenodd"></path></g></svg>