<svg id="svg" version="1.1" xmlns="http://www.w3.org/2000/svg" xmlns:xlink="http://www.w3.org/1999/xlink" width="400" height="126.94444444444444" viewBox="0, 0, 400,126.94444444444444"><g id="svgg"><path id="path0" d="M40.863 20.444 C 40.923 20.756,43.873 22.833,44.255 22.833 C 45.101 22.833,43.767 21.530,42.045 20.676 C 40.855 20.086,40.791 20.073,40.863 20.444 M24.984 23.114 C 23.385 23.786,24.573 26.419,26.970 27.519 C 27.445 27.736,27.833 27.955,27.833 28.005 C 27.833 28.124,29.668 27.921,30.030 27.763 C 31.212 27.245,30.266 24.707,28.517 23.706 C 28.006 23.413,27.746 23.161,27.790 23.000 C 27.843 22.805,27.825 22.798,27.705 22.968 C 27.607 23.108,27.395 23.147,27.114 23.076 C 26.358 22.886,25.488 22.902,24.984 23.114 M38.053 24.001 C 37.507 24.221,37.287 24.778,37.369 25.732 C 37.657 29.074,42.859 33.411,44.338 31.542 C 46.001 29.439,40.609 22.971,38.053 24.001 M49.061 26.415 C 48.921 26.779,49.646 27.916,51.340 29.990 C 53.338 32.437,54.405 32.981,53.838 31.264 C 53.165 29.225,49.435 25.439,49.061 26.415 M46.700 29.533 C 45.875 30.358,48.200 35.246,49.808 36.068 C 52.099 37.237,50.777 32.462,48.160 30.109 C 47.254 29.295,47.028 29.205,46.700 29.533 M37.083 33.624 C 36.900 33.666,36.631 33.806,36.486 33.934 C 36.342 34.062,36.190 34.135,36.150 34.095 C 35.935 33.879,36.012 36.118,36.245 36.817 C 36.611 37.922,37.452 39.216,37.702 39.062 C 37.855 38.967,37.854 38.924,37.700 38.872 C 37.459 38.792,37.431 38.333,37.667 38.333 C 37.758 38.333,37.833 38.408,37.833 38.500 C 37.833 38.592,37.955 38.667,38.104 38.667 C 38.336 38.667,38.342 38.628,38.147 38.393 C 37.945 38.149,37.961 38.132,38.293 38.237 C 38.563 38.323,38.667 38.289,38.667 38.114 C 38.667 37.981,38.822 37.832,39.012 37.782 C 39.203 37.732,39.399 37.534,39.449 37.342 C 39.521 37.067,39.590 37.034,39.770 37.184 C 39.947 37.330,40.000 37.320,40.000 37.141 C 40.000 37.012,40.156 36.774,40.347 36.610 C 40.557 36.430,40.656 36.202,40.598 36.031 C 40.544 35.877,40.770 36.050,41.100 36.417 C 41.690 37.073,41.694 37.075,41.391 36.527 C 40.451 34.828,38.261 33.352,37.083 33.624 M26.099 35.475 C 26.050 35.553,25.454 35.582,24.773 35.538 C 16.912 35.033,20.251 44.187,28.361 45.376 C 35.678 46.449,34.549 38.347,27.043 35.913 C 26.563 35.757,26.211 35.563,26.262 35.481 C 26.312 35.400,26.316 35.333,26.270 35.333 C 26.224 35.333,26.147 35.397,26.099 35.475 M52.720 38.601 C 52.407 39.417,53.498 42.851,54.296 43.556 C 55.728 44.824,55.648 41.506,54.193 39.330 C 53.548 38.363,52.929 38.057,52.720 38.601 M37.667 39.385 C 37.667 39.414,37.910 39.658,38.208 39.927 L 38.750 40.417 38.260 39.875 C 37.804 39.370,37.667 39.257,37.667 39.385 M9.750 50.110 C 9.567 50.161,9.342 50.259,9.250 50.328 C 9.158 50.397,8.896 50.502,8.667 50.560 C 8.438 50.618,8.063 50.821,7.833 51.010 L 7.417 51.354 7.833 51.250 C 8.157 51.168,8.194 51.184,8.000 51.322 C 7.787 51.474,7.785 51.522,7.985 51.651 C 8.184 51.780,8.178 51.889,7.943 52.385 C 7.625 53.056,7.593 53.435,7.841 53.588 C 8.101 53.749,7.698 54.167,7.284 54.167 C 6.953 54.167,6.955 54.180,7.336 54.586 C 9.187 56.557,14.565 56.408,15.954 54.347 C 17.602 51.902,13.473 49.082,9.750 50.110 M8.500 54.563 C 8.500 54.598,8.387 54.719,8.250 54.833 C 8.045 55.003,8.000 54.992,8.000 54.770 C 8.000 54.622,8.112 54.500,8.250 54.500 C 8.387 54.500,8.500 54.528,8.500 54.563 M25.000 62.273 C 19.178 63.438,15.448 68.532,18.469 71.192 C 18.807 71.489,19.065 71.790,19.044 71.860 C 19.022 71.931,19.101 71.951,19.219 71.905 C 19.337 71.860,19.716 71.941,20.060 72.084 C 23.983 73.723,31.196 70.221,31.733 66.417 L 31.827 65.750 31.622 66.452 C 31.429 67.111,31.000 67.766,31.000 67.400 C 31.000 67.308,31.090 67.143,31.200 67.033 C 31.356 66.878,31.356 66.833,31.200 66.833 C 31.090 66.833,31.000 66.716,31.000 66.573 C 31.000 66.431,30.930 66.357,30.845 66.410 C 30.760 66.462,30.639 66.423,30.577 66.323 C 30.501 66.200,30.644 66.169,31.024 66.227 C 31.533 66.305,31.555 66.292,31.270 66.081 C 31.070 65.933,30.989 65.725,31.046 65.508 C 31.142 65.143,30.911 65.026,30.787 65.375 C 30.663 65.723,30.457 65.380,30.407 64.740 C 30.380 64.409,30.229 63.994,30.070 63.819 C 29.912 63.643,29.850 63.498,29.933 63.496 C 30.015 63.494,29.896 63.343,29.667 63.160 L 29.250 62.828 29.750 63.009 C 30.025 63.108,30.398 63.316,30.580 63.470 C 30.897 63.738,30.901 63.737,30.664 63.431 C 30.004 62.581,26.768 61.919,25.000 62.273 M56.048 67.708 C 54.498 69.400,53.916 74.167,55.259 74.167 C 56.282 74.167,57.336 72.071,57.458 69.796 C 57.577 67.563,56.984 66.686,56.048 67.708 M34.265 71.680 C 31.656 74.497,31.930 76.834,34.869 76.833 C 36.055 76.833,38.413 76.025,38.111 75.722 C 38.054 75.666,37.894 75.714,37.754 75.830 C 37.614 75.946,37.500 75.985,37.500 75.917 C 37.500 75.848,37.369 75.886,37.208 76.001 C 37.048 76.116,37.174 75.964,37.489 75.663 C 38.056 75.122,38.057 75.117,37.623 75.200 C 37.343 75.253,37.152 75.202,37.097 75.059 C 37.049 74.935,36.914 74.831,36.797 74.829 C 36.284 74.818,35.106 73.211,35.260 72.732 C 35.339 72.485,35.280 72.507,34.988 72.833 L 34.615 73.250 34.714 72.853 C 34.812 72.462,34.478 71.911,34.270 72.119 C 34.213 72.176,34.167 72.157,34.167 72.076 C 34.167 71.996,34.444 71.646,34.784 71.299 C 35.123 70.951,35.356 70.667,35.302 70.667 C 35.247 70.667,34.781 71.123,34.265 71.680 M46.846 81.387 C 45.481 84.749,45.844 86.558,47.738 85.838 C 48.731 85.460,51.414 82.221,50.881 82.044 C 50.773 82.008,50.727 81.871,50.777 81.739 C 50.828 81.608,50.786 81.500,50.684 81.500 C 50.583 81.500,50.500 81.579,50.500 81.677 C 50.500 81.774,50.422 81.805,50.326 81.745 C 50.230 81.686,50.043 81.729,49.909 81.839 C 49.522 82.161,49.629 81.882,50.042 81.494 L 50.417 81.142 49.958 81.238 C 49.706 81.290,49.307 81.374,49.070 81.423 C 48.690 81.503,48.653 81.471,48.755 81.150 C 48.860 80.819,48.829 80.799,48.393 80.915 C 47.385 81.183,47.145 81.163,47.254 80.819 C 47.465 80.155,47.191 80.536,46.846 81.387 M39.203 80.854 C 34.916 82.091,29.049 89.997,31.167 91.684 C 32.589 92.816,36.452 91.334,39.240 88.587 C 43.409 84.479,43.386 79.648,39.203 80.854 M56.465 82.208 C 52.962 86.341,49.877 93.767,52.153 92.590 C 55.068 91.083,59.854 83.180,58.839 81.550 C 58.683 81.299,58.667 81.331,58.742 81.750 C 58.858 82.390,58.640 82.787,58.359 82.448 C 58.246 82.312,57.990 82.247,57.749 82.293 C 57.326 82.374,57.162 82.097,57.542 81.944 C 57.656 81.897,57.674 81.854,57.582 81.846 C 57.489 81.839,57.208 82.024,56.957 82.257 C 56.380 82.791,56.372 82.645,56.936 81.906 C 57.605 81.028,57.298 81.226,56.465 82.208 M20.917 82.586 C 20.550 82.720,20.140 82.789,20.005 82.739 C 19.870 82.690,19.811 82.700,19.873 82.762 C 19.936 82.824,19.558 83.154,19.035 83.494 C 15.131 86.030,15.042 89.752,18.913 88.578 C 19.369 88.440,19.841 88.365,19.963 88.411 C 20.085 88.458,20.142 88.428,20.090 88.344 C 20.038 88.260,20.343 88.019,20.767 87.807 C 22.211 87.086,24.000 85.057,24.000 84.141 C 24.000 83.987,24.094 83.823,24.208 83.777 C 24.357 83.716,24.364 83.652,24.233 83.554 C 24.034 83.404,23.583 82.635,23.616 82.500 C 23.667 82.296,21.523 82.364,20.917 82.586 M40.255 95.259 C 40.074 95.396,39.814 95.464,39.677 95.412 C 39.539 95.359,39.481 95.370,39.548 95.437 C 39.698 95.587,38.825 96.181,38.631 96.061 C 38.555 96.014,38.512 96.039,38.538 96.117 C 38.563 96.195,38.133 96.664,37.583 97.158 C 33.671 100.675,34.414 102.243,38.636 99.379 C 39.249 98.963,39.844 98.620,39.958 98.617 C 40.073 98.614,40.132 98.576,40.089 98.534 C 40.047 98.491,40.422 97.998,40.922 97.437 C 41.789 96.465,42.177 95.589,41.923 95.177 C 41.762 94.916,40.635 94.971,40.255 95.259 M46.776 97.517 C 45.797 98.166,43.332 100.510,43.333 100.792 C 43.335 101.633,45.498 100.138,47.205 98.115 C 48.073 97.086,47.865 96.796,46.776 97.517 " stroke="none" fill="#1f9bf2" fill-rule="evenodd"></path><path id="path1" d="M40.598 36.031 C 40.656 36.201,40.557 36.431,40.347 36.610 C 40.156 36.774,40.000 37.012,40.000 37.141 C 40.000 37.320,39.947 37.330,39.770 37.184 C 39.590 37.034,39.521 37.067,39.449 37.342 C 39.399 37.534,39.203 37.732,39.012 37.782 C 38.822 37.832,38.667 37.981,38.667 38.114 C 38.667 38.289,38.563 38.323,38.293 38.237 C 37.961 38.132,37.945 38.149,38.147 38.393 C 38.342 38.628,38.336 38.667,38.104 38.667 C 37.955 38.667,37.833 38.592,37.833 38.500 C 37.833 38.408,37.758 38.333,37.667 38.333 C 37.575 38.333,37.500 38.446,37.500 38.583 C 37.500 38.721,37.573 38.833,37.661 38.833 C 37.750 38.833,37.786 38.929,37.741 39.046 C 37.696 39.163,37.958 39.550,38.323 39.906 C 38.688 40.263,38.940 40.629,38.884 40.720 C 38.828 40.810,38.865 40.834,38.966 40.771 C 39.067 40.708,39.434 40.809,39.781 40.995 C 41.861 42.110,43.112 40.223,41.933 37.750 C 41.546 36.938,40.406 35.471,40.598 36.031 M55.391 36.090 C 55.056 36.963,56.633 40.920,57.543 41.488 C 57.964 41.751,58.167 41.574,58.163 40.948 C 58.146 38.721,55.895 34.776,55.391 36.090 M46.566 39.086 C 45.772 40.299,47.764 44.667,49.111 44.667 C 50.468 44.667,49.843 41.076,48.184 39.331 C 47.454 38.564,46.957 38.489,46.566 39.086 M59.833 41.652 C 59.833 42.049,60.832 44.671,61.346 45.625 C 62.211 47.228,62.183 45.908,61.307 43.736 C 60.472 41.669,59.833 40.766,59.833 41.652 M39.772 46.179 C 38.879 46.882,39.377 48.860,40.700 49.866 C 43.101 51.691,45.372 50.923,44.485 48.587 C 43.717 46.565,41.028 45.191,39.772 46.179 M58.728 46.792 C 57.945 47.946,58.457 50.985,59.459 51.134 C 60.623 51.308,60.651 47.116,59.491 46.495 C 59.078 46.274,59.079 46.274,58.728 46.792 M30.736 50.581 C 27.213 51.694,26.696 54.842,29.787 56.364 C 32.136 57.520,35.504 57.009,36.894 55.284 C 39.013 52.656,34.669 49.339,30.736 50.581 M62.400 51.092 C 62.000 52.683,62.610 56.470,63.338 56.920 C 64.048 57.358,64.200 54.743,63.605 52.322 C 63.211 50.715,62.640 50.133,62.400 51.092 M41.811 58.683 C 40.114 58.940,38.667 60.375,38.667 61.803 C 38.667 63.096,39.807 63.795,41.417 63.488 C 45.328 62.741,45.710 58.094,41.811 58.683 M60.233 58.794 C 59.089 59.559,59.875 63.667,61.166 63.667 C 62.379 63.667,62.312 59.996,61.081 59.028 C 60.579 58.633,60.505 58.613,60.233 58.794 M64.085 60.542 C 63.916 61.038,63.581 65.889,63.647 66.885 C 63.692 67.577,63.971 66.915,64.141 65.711 C 64.571 62.658,64.534 59.224,64.085 60.542 M29.667 63.164 C 29.896 63.345,30.015 63.494,29.933 63.496 C 29.850 63.498,29.912 63.643,30.070 63.819 C 30.229 63.994,30.380 64.409,30.407 64.740 C 30.457 65.380,30.663 65.723,30.787 65.375 C 30.911 65.026,31.142 65.143,31.046 65.508 C 30.989 65.725,31.070 65.933,31.270 66.081 C 31.555 66.292,31.533 66.305,31.024 66.227 C 30.644 66.169,30.501 66.200,30.577 66.323 C 30.639 66.423,30.760 66.462,30.845 66.410 C 30.930 66.357,31.000 66.431,31.000 66.573 C 31.000 66.716,31.084 66.833,31.187 66.833 C 31.315 66.833,31.307 66.914,31.163 67.087 C 31.047 67.227,30.990 67.379,31.036 67.425 C 31.184 67.573,31.447 67.101,31.627 66.364 C 31.967 64.977,31.133 63.486,29.750 63.008 L 29.250 62.834 29.667 63.164 M47.534 68.068 C 45.870 69.624,44.834 72.713,45.606 73.815 C 46.454 75.025,48.809 73.057,49.567 70.504 C 50.381 67.763,49.276 66.439,47.534 68.068 M61.771 69.542 C 60.445 71.838,59.783 77.541,60.893 77.116 C 62.153 76.632,63.893 70.524,63.161 69.156 C 62.852 68.578,62.228 68.751,61.771 69.542 M37.999 69.237 C 36.757 69.580,34.167 71.491,34.167 72.063 C 34.167 72.151,34.213 72.176,34.270 72.119 C 34.478 71.911,34.812 72.462,34.714 72.853 L 34.615 73.250 34.988 72.833 C 35.280 72.507,35.339 72.485,35.260 72.732 C 35.106 73.211,36.284 74.818,36.797 74.829 C 36.914 74.831,37.049 74.935,37.097 75.059 C 37.152 75.202,37.343 75.253,37.623 75.200 C 38.056 75.117,38.055 75.123,37.489 75.655 C 37.174 75.952,37.029 76.134,37.167 76.058 C 37.304 75.983,37.454 75.916,37.500 75.909 C 38.451 75.764,40.136 74.260,40.824 72.941 C 42.235 70.239,40.867 68.445,37.999 69.237 M50.417 76.610 C 49.413 77.139,48.629 78.089,47.670 79.937 C 46.988 81.252,47.010 81.282,48.393 80.915 C 48.829 80.799,48.860 80.819,48.755 81.150 C 48.653 81.471,48.690 81.503,49.070 81.423 C 49.307 81.374,49.706 81.290,49.958 81.238 L 50.417 81.142 50.042 81.494 C 49.629 81.882,49.522 82.161,49.909 81.839 C 50.043 81.729,50.230 81.686,50.326 81.745 C 50.422 81.805,50.500 81.774,50.500 81.677 C 50.500 81.579,50.583 81.500,50.684 81.500 C 50.786 81.500,50.826 81.612,50.773 81.750 C 50.540 82.356,50.966 81.928,51.228 81.292 C 51.388 80.902,51.599 80.438,51.697 80.261 C 52.086 79.554,52.070 77.292,51.673 76.792 C 51.256 76.267,51.109 76.246,50.417 76.610 M57.153 81.682 C 56.408 82.488,56.270 82.894,56.957 82.257 C 57.208 82.024,57.489 81.839,57.582 81.846 C 57.674 81.854,57.656 81.897,57.542 81.944 C 57.179 82.090,57.317 82.359,57.727 82.306 C 57.943 82.277,58.237 82.351,58.379 82.469 C 58.596 82.649,58.651 82.635,58.717 82.384 C 59.094 80.940,58.205 80.542,57.153 81.682 " stroke="none" fill="#520ff4" fill-rule="evenodd"></path><path id="path2" d="M391.733 29.216 C 387.907 31.273,389.256 37.167,393.553 37.167 C 397.983 37.167,399.292 31.186,395.307 29.153 C 394.406 28.694,392.647 28.724,391.733 29.216 M328.333 56.833 L 328.333 84.000 331.583 84.000 L 334.833 84.000 334.833 71.333 L 334.833 58.667 345.083 58.667 L 355.333 58.667 355.333 55.833 L 355.333 53.000 345.083 53.000 L 334.833 53.000 334.833 44.167 L 334.833 35.333 346.083 35.333 L 357.333 35.333 357.333 32.500 L 357.333 29.667 342.833 29.667 L 328.333 29.667 328.333 56.833 M40.708 41.615 C 40.869 41.657,41.131 41.657,41.292 41.615 C 41.452 41.573,41.321 41.539,41.000 41.539 C 40.679 41.539,40.548 41.573,40.708 41.615 M97.167 43.100 C 91.191 44.126,87.965 45.781,85.781 48.942 C 83.180 52.706,83.968 58.601,87.452 61.442 C 89.523 63.132,90.364 63.516,95.417 65.078 C 101.115 66.841,101.637 67.020,103.304 67.778 C 103.975 68.083,104.575 68.338,104.637 68.344 C 105.452 68.424,107.222 70.481,107.602 71.791 C 109.579 78.589,98.244 82.239,87.603 78.232 C 86.950 77.987,86.317 77.707,86.196 77.612 C 85.958 77.425,85.674 77.711,85.669 78.143 C 85.668 78.268,85.485 79.130,85.262 80.060 C 85.040 80.989,84.809 82.020,84.749 82.350 L 84.639 82.949 86.111 83.465 C 93.024 85.887,103.080 85.593,107.500 82.840 C 107.638 82.754,108.050 82.522,108.417 82.323 C 109.077 81.965,110.928 80.532,111.251 80.127 C 112.691 78.325,113.091 77.599,113.590 75.877 C 114.510 72.702,113.786 68.223,112.047 66.337 C 109.718 63.810,106.954 62.225,103.005 61.152 C 102.407 60.990,101.242 60.658,100.417 60.414 C 99.592 60.171,98.429 59.838,97.833 59.674 C 93.102 58.374,91.209 57.217,90.590 55.248 C 89.330 51.241,93.761 48.167,100.797 48.167 C 102.762 48.167,107.071 48.747,108.167 49.160 C 108.396 49.246,108.970 49.427,109.444 49.562 L 110.304 49.807 110.483 49.362 C 110.581 49.117,110.808 48.317,110.986 47.583 C 111.164 46.850,111.391 45.988,111.489 45.668 C 111.805 44.635,111.779 44.605,110.208 44.202 C 106.513 43.252,99.653 42.673,97.167 43.100 M194.833 43.107 C 191.200 43.776,187.964 44.714,185.750 45.740 C 183.996 46.554,182.978 47.068,182.913 47.173 C 182.841 47.289,183.331 48.884,183.654 49.583 C 183.738 49.767,183.936 50.273,184.093 50.708 C 184.434 51.654,184.328 51.642,185.977 50.917 C 186.707 50.596,187.356 50.333,187.418 50.333 C 187.481 50.333,187.769 50.224,188.058 50.090 C 188.347 49.956,189.146 49.684,189.833 49.486 C 199.937 46.565,205.359 49.439,205.629 57.857 L 205.707 60.297 204.895 60.392 C 204.449 60.444,203.408 60.528,202.583 60.579 C 197.513 60.892,191.420 61.814,189.917 62.496 C 189.733 62.580,189.116 62.830,188.545 63.053 C 183.417 65.056,180.931 68.520,180.929 73.667 C 180.924 85.911,196.378 89.407,205.050 79.123 L 206.000 77.996 206.000 78.802 C 206.000 79.620,206.411 82.670,206.644 83.583 L 206.771 84.083 209.844 84.083 C 212.489 84.083,212.909 84.049,212.860 83.833 C 212.002 80.045,211.834 77.071,211.824 65.429 C 211.817 57.463,211.761 54.594,211.592 53.583 C 210.660 48.008,207.919 44.792,202.984 43.483 C 201.622 43.122,196.131 42.869,194.833 43.107 M249.241 43.315 C 245.542 44.440,243.040 46.605,240.361 51.000 L 240.006 51.583 240.003 47.708 L 240.000 43.833 236.917 43.833 L 233.833 43.833 233.833 64.000 L 233.833 84.167 236.917 84.167 L 240.000 84.167 240.000 71.074 L 240.000 57.982 240.688 56.969 C 244.621 51.177,248.606 48.756,253.258 49.334 C 254.620 49.503,258.028 50.510,258.408 50.856 C 258.701 51.122,258.789 51.005,259.337 49.625 C 259.637 48.869,260.066 47.845,260.290 47.351 C 260.730 46.383,261.167 45.207,261.167 44.992 C 261.167 44.920,260.773 44.732,260.292 44.575 C 259.810 44.418,259.341 44.230,259.249 44.158 C 258.082 43.244,251.341 42.677,249.241 43.315 M287.093 43.415 C 285.078 44.243,283.115 45.990,281.647 48.262 L 280.917 49.391 280.871 46.612 L 280.825 43.833 277.829 43.833 L 274.833 43.833 274.833 63.917 L 274.833 84.000 277.917 84.000 L 281.000 84.000 281.000 69.593 L 281.000 55.186 281.358 54.551 C 284.815 48.419,287.378 46.868,289.222 49.789 C 289.626 50.429,289.856 51.201,290.319 53.471 C 290.441 54.070,290.500 59.173,290.500 69.179 L 290.500 84.000 293.583 84.000 L 296.667 84.000 296.667 69.581 L 296.667 55.162 297.205 54.206 C 300.629 48.129,303.484 46.740,305.153 50.339 C 306.040 52.254,306.048 52.401,306.119 68.792 L 306.186 84.000 309.266 84.000 L 312.346 84.000 312.293 67.792 L 312.240 51.583 311.853 49.917 C 309.828 41.199,302.372 40.440,297.184 48.423 L 296.409 49.616 296.106 48.683 C 294.678 44.284,290.673 41.943,287.093 43.415 M128.437 44.455 C 128.483 44.800,128.555 45.233,128.598 45.417 C 128.640 45.600,128.858 47.100,129.082 48.750 C 129.305 50.400,129.681 53.100,129.916 54.750 C 130.152 56.400,130.528 59.063,130.753 60.667 C 131.179 63.703,131.720 67.529,132.426 72.500 C 132.966 76.302,133.631 81.061,133.866 82.792 L 134.052 84.167 136.422 84.167 L 138.793 84.167 139.006 83.625 C 139.123 83.327,139.394 82.687,139.609 82.203 C 139.824 81.719,140.000 81.283,140.000 81.234 C 140.000 81.185,140.188 80.735,140.417 80.234 C 140.646 79.733,140.833 79.283,140.833 79.234 C 140.833 79.185,141.021 78.735,141.250 78.234 C 141.479 77.733,141.667 77.284,141.667 77.236 C 141.667 77.188,141.810 76.834,141.984 76.449 C 142.159 76.065,142.577 75.075,142.912 74.250 C 143.248 73.425,143.668 72.432,143.845 72.043 C 144.022 71.655,144.167 71.295,144.167 71.243 C 144.167 71.191,144.310 70.834,144.484 70.449 C 144.659 70.065,145.077 69.075,145.412 68.250 C 145.748 67.425,146.123 66.525,146.247 66.250 C 146.370 65.975,146.749 65.075,147.088 64.250 C 147.428 63.425,147.816 62.533,147.952 62.268 L 148.199 61.787 148.530 62.518 C 148.712 62.921,149.185 64.037,149.580 65.000 C 149.975 65.962,150.688 67.688,151.165 68.833 C 151.643 69.979,152.204 71.329,152.413 71.833 C 152.623 72.337,153.186 73.688,153.665 74.833 C 154.144 75.979,154.682 77.292,154.860 77.750 C 155.038 78.208,155.317 78.883,155.480 79.250 C 155.643 79.617,156.179 80.873,156.671 82.042 L 157.566 84.167 159.918 84.167 L 162.270 84.167 162.551 82.125 C 162.847 79.973,163.357 76.400,164.081 71.417 C 164.321 69.767,164.699 67.142,164.922 65.583 C 165.144 64.025,165.511 61.475,165.737 59.917 C 166.729 53.077,167.754 45.941,167.946 44.542 L 168.043 43.833 164.855 43.833 C 161.931 43.833,161.666 43.857,161.663 44.125 C 161.662 44.285,161.546 45.392,161.406 46.583 C 161.267 47.775,160.964 50.475,160.734 52.583 C 160.503 54.692,160.138 58.029,159.921 60.000 C 159.705 61.971,159.333 65.383,159.095 67.583 C 158.475 73.329,158.592 73.107,157.521 70.552 C 156.442 67.978,155.735 66.323,155.314 65.384 C 155.141 65.000,155.000 64.643,155.000 64.591 C 155.000 64.539,154.854 64.178,154.676 63.790 C 154.498 63.401,153.927 62.071,153.408 60.833 C 152.889 59.596,152.247 58.083,151.982 57.472 C 151.717 56.861,151.500 56.278,151.500 56.177 C 151.500 56.047,150.529 56.006,148.222 56.038 L 144.944 56.083 143.968 58.417 C 143.430 59.700,142.843 61.068,142.662 61.457 C 142.481 61.845,142.333 62.205,142.333 62.257 C 142.333 62.309,142.192 62.666,142.020 63.051 C 141.275 64.711,140.667 66.147,140.667 66.247 C 140.667 66.306,140.492 66.743,140.278 67.219 C 139.832 68.210,139.449 69.104,138.514 71.329 C 138.150 72.197,137.817 72.797,137.774 72.662 C 137.731 72.527,137.536 70.842,137.339 68.917 C 137.003 65.612,136.827 64.020,135.749 54.500 C 135.504 52.346,135.142 49.083,134.944 47.250 L 134.583 43.917 131.468 43.871 L 128.353 43.826 128.437 44.455 M378.500 46.583 L 378.500 49.333 384.417 49.333 L 390.333 49.333 390.333 66.667 L 390.333 84.000 393.417 84.000 L 396.500 84.000 396.500 63.917 L 396.500 43.833 387.500 43.833 L 378.500 43.833 378.500 46.583 M205.667 68.593 L 205.667 72.186 205.125 72.882 C 198.789 81.024,187.422 81.260,187.422 73.250 C 187.422 68.587,191.010 66.501,200.753 65.500 C 202.573 65.313,204.099 65.124,204.143 65.080 C 204.186 65.036,204.547 65.000,204.944 65.000 L 205.667 65.000 205.667 68.593 " stroke="none" fill="#040404" fill-rule="evenodd"></path><path id="path3" d="M40.595 20.147 C 40.345 20.552,43.518 23.000,44.293 23.000 C 45.184 23.000,44.148 21.562,42.795 20.920 C 42.495 20.778,42.391 20.757,42.564 20.873 C 44.152 21.938,44.926 22.833,44.260 22.833 C 43.943 22.833,40.990 20.834,40.879 20.544 C 40.735 20.170,40.941 20.127,41.500 20.417 C 41.792 20.568,42.068 20.654,42.114 20.608 C 42.223 20.499,41.256 20.000,40.935 20.000 C 40.798 20.000,40.645 20.066,40.595 20.147 M25.214 22.776 C 22.846 23.284,24.556 27.118,27.500 27.902 C 27.729 27.963,27.538 27.824,27.076 27.593 C 23.808 25.962,23.173 22.932,26.105 22.959 C 29.883 22.993,32.420 27.936,28.700 28.017 C 27.925 28.034,27.922 28.036,28.447 28.205 C 29.116 28.420,29.655 28.287,30.215 27.768 C 32.131 25.992,28.255 22.123,25.214 22.776 M38.216 23.753 C 35.725 24.800,38.706 30.950,42.167 31.902 C 42.396 31.965,42.146 31.774,41.612 31.477 C 37.303 29.082,35.665 22.754,39.701 24.095 C 43.304 25.292,46.294 31.917,43.280 32.025 C 42.745 32.044,42.695 32.067,43.062 32.121 C 45.672 32.511,45.250 28.819,42.345 25.841 C 40.654 24.108,39.164 23.354,38.216 23.753 M48.919 26.325 C 48.764 26.814,50.733 29.957,51.216 29.991 C 51.289 29.996,50.973 29.536,50.514 28.969 C 49.376 27.563,48.860 26.574,49.125 26.309 C 49.921 25.512,54.395 30.897,53.934 32.097 C 53.789 32.476,53.239 32.140,52.189 31.029 C 51.489 30.289,51.408 30.234,51.815 30.775 C 53.007 32.360,54.028 32.887,54.135 31.971 C 54.338 30.217,49.385 24.856,48.919 26.325 M46.595 29.429 C 46.289 29.735,46.259 30.386,46.515 31.183 C 46.759 31.945,47.802 34.167,47.915 34.167 C 47.965 34.167,47.824 33.809,47.603 33.371 C 46.575 31.343,46.294 29.830,46.870 29.426 C 47.074 29.283,47.155 29.167,47.049 29.167 C 46.943 29.167,46.739 29.285,46.595 29.429 M47.347 29.385 C 47.385 29.413,47.867 29.844,48.417 30.341 C 48.967 30.839,49.229 31.029,49.000 30.762 C 48.394 30.058,47.607 29.344,47.431 29.338 C 47.347 29.336,47.309 29.357,47.347 29.385 M49.647 31.833 C 51.858 35.330,51.101 37.819,48.668 35.046 C 48.284 34.608,48.046 34.400,48.139 34.583 C 48.416 35.131,49.719 36.304,50.174 36.415 C 51.675 36.782,51.197 33.072,49.541 31.500 C 49.397 31.363,49.444 31.512,49.647 31.833 M36.733 33.572 C 36.449 33.695,36.168 33.923,36.108 34.078 C 35.930 34.543,35.981 34.541,36.386 34.070 C 37.462 32.819,40.260 34.345,41.606 36.917 C 41.864 37.410,42.101 37.788,42.133 37.756 C 42.246 37.643,41.511 36.377,40.840 35.528 C 39.578 33.932,37.825 33.097,36.733 33.572 M35.768 35.070 C 35.713 35.291,35.737 35.647,35.823 35.861 C 35.953 36.187,35.981 36.121,35.989 35.458 C 36.001 34.587,35.924 34.451,35.768 35.070 M22.920 35.361 C 22.554 35.443,22.179 35.589,22.086 35.684 C 21.969 35.803,22.072 35.814,22.417 35.720 C 22.692 35.645,23.607 35.583,24.450 35.583 C 25.294 35.583,25.931 35.537,25.867 35.480 C 25.654 35.291,23.595 35.208,22.920 35.361 M26.333 35.667 C 26.471 35.756,26.696 35.828,26.833 35.828 C 27.056 35.828,27.056 35.810,26.833 35.667 C 26.696 35.578,26.471 35.505,26.333 35.505 C 26.111 35.505,26.111 35.523,26.333 35.667 M55.428 35.762 C 55.062 36.128,55.100 36.279,55.473 35.941 C 55.760 35.682,55.804 35.686,56.165 35.999 C 56.625 36.397,56.793 36.436,56.492 36.074 C 56.092 35.592,55.710 35.480,55.428 35.762 M20.931 36.435 C 17.550 39.917,25.414 47.021,30.975 45.509 C 31.980 45.235,31.780 45.167,30.606 45.383 C 24.896 46.432,17.672 39.594,21.177 36.458 C 21.562 36.115,21.795 35.833,21.696 35.833 C 21.597 35.833,21.253 36.104,20.931 36.435 M27.500 36.027 C 27.729 36.135,28.179 36.337,28.500 36.476 C 30.584 37.381,32.777 39.740,33.247 41.583 C 33.317 41.858,33.409 41.989,33.452 41.873 C 33.957 40.498,30.013 36.564,27.500 35.936 L 27.083 35.832 27.500 36.027 M36.004 36.560 C 35.998 37.007,36.909 38.639,37.598 39.417 C 38.131 40.018,38.121 39.990,37.494 39.129 C 37.112 38.604,36.621 37.742,36.404 37.212 C 36.186 36.683,36.006 36.390,36.004 36.560 M52.765 38.260 C 52.419 38.513,52.464 40.364,52.831 40.963 C 52.962 41.177,52.975 41.080,52.881 40.583 C 52.441 38.249,53.071 37.651,54.197 39.333 C 54.535 39.837,54.901 40.569,55.011 40.958 C 55.120 41.348,55.275 41.667,55.355 41.667 C 55.536 41.667,55.537 41.572,55.360 41.206 C 55.282 41.047,55.039 40.544,54.818 40.089 C 54.073 38.552,53.303 37.866,52.765 38.260 M53.008 41.460 C 52.993 41.854,53.679 43.116,54.155 43.573 C 55.066 44.445,55.871 43.755,55.564 42.366 C 55.431 41.763,55.426 41.770,55.339 42.749 C 55.193 44.386,54.379 44.168,53.483 42.250 C 53.226 41.700,53.012 41.345,53.008 41.460 M33.333 42.675 C 33.333 43.349,32.923 44.143,32.276 44.719 C 31.909 45.046,31.861 45.134,32.118 45.008 C 32.912 44.621,34.052 42.167,33.438 42.167 C 33.381 42.167,33.333 42.395,33.333 42.675 M9.484 49.911 C 6.161 51.134,5.318 53.539,7.634 55.188 C 11.311 57.805,17.981 55.418,16.314 52.081 C 15.369 50.188,11.806 49.056,9.484 49.911 M14.299 50.497 C 16.148 51.300,16.872 52.985,15.954 54.347 C 14.565 56.408,9.187 56.557,7.336 54.586 C 6.955 54.180,6.953 54.167,7.284 54.167 C 7.698 54.167,8.101 53.749,7.841 53.588 C 7.593 53.435,7.625 53.056,7.943 52.385 C 8.178 51.889,8.184 51.780,7.985 51.651 C 7.785 51.522,7.787 51.474,8.000 51.322 C 8.194 51.184,8.157 51.168,7.833 51.250 L 7.417 51.354 7.833 51.010 C 8.063 50.821,8.438 50.618,8.667 50.560 C 8.896 50.502,9.158 50.397,9.250 50.328 C 9.877 49.855,13.065 49.962,14.299 50.497 M8.000 54.770 C 8.000 54.992,8.045 55.003,8.250 54.833 C 8.387 54.719,8.500 54.598,8.500 54.563 C 8.500 54.528,8.387 54.500,8.250 54.500 C 8.112 54.500,8.000 54.622,8.000 54.770 M24.250 62.227 C 18.015 63.847,14.971 69.744,19.253 71.911 C 20.699 72.642,23.683 72.854,24.917 72.312 C 25.132 72.217,24.985 72.204,24.500 72.275 C 18.115 73.205,15.192 69.312,19.236 65.265 C 25.033 59.463,35.648 62.783,30.576 68.811 C 30.335 69.098,30.200 69.330,30.277 69.327 C 30.773 69.304,32.000 66.855,32.000 65.889 C 32.000 63.076,28.091 61.229,24.250 62.227 M55.978 67.625 C 54.019 69.776,53.692 75.165,55.573 74.308 C 56.039 74.096,57.080 72.653,57.239 72.000 C 57.295 71.771,57.151 71.955,56.919 72.409 C 55.344 75.493,53.835 74.133,54.769 70.472 C 55.763 66.576,57.640 66.164,57.463 69.879 C 57.418 70.817,57.440 71.433,57.512 71.250 C 58.334 69.157,57.144 66.345,55.978 67.625 M29.550 69.900 C 28.786 70.543,27.156 71.443,26.174 71.764 C 25.674 71.927,25.351 72.089,25.456 72.124 C 25.944 72.287,30.167 70.002,30.167 69.575 C 30.167 69.428,30.019 69.506,29.550 69.900 M36.122 69.923 C 35.780 70.155,35.500 70.381,35.500 70.425 C 35.500 70.469,35.800 70.306,36.167 70.064 C 36.749 69.678,36.946 69.500,36.789 69.500 C 36.764 69.500,36.464 69.690,36.122 69.923 M34.253 71.458 C 31.398 74.410,31.978 77.656,35.256 77.066 L 36.083 76.918 34.917 76.873 C 31.883 76.758,31.641 74.488,34.353 71.589 C 34.913 70.990,35.329 70.500,35.276 70.500 C 35.224 70.500,34.763 70.931,34.253 71.458 M38.788 75.355 C 38.534 75.545,37.934 75.922,37.455 76.193 C 36.975 76.465,36.771 76.634,37.000 76.570 C 37.578 76.408,39.710 74.952,39.292 75.005 C 39.269 75.008,39.042 75.166,38.788 75.355 M47.783 79.292 C 45.162 83.664,45.264 87.352,47.967 85.930 C 49.329 85.212,52.288 80.899,51.771 80.382 C 51.730 80.342,51.644 80.483,51.579 80.696 C 50.560 84.030,47.274 87.078,46.259 85.630 C 45.604 84.694,46.435 81.686,48.079 79.042 C 48.321 78.652,48.483 78.333,48.438 78.333 C 48.394 78.333,48.099 78.765,47.783 79.292 M51.947 79.397 C 51.885 79.560,51.838 79.819,51.844 79.972 C 51.851 80.156,51.909 80.114,52.015 79.848 C 52.104 79.626,52.150 79.368,52.119 79.273 C 52.087 79.178,52.010 79.234,51.947 79.397 M38.956 80.730 C 34.299 82.457,29.052 89.794,31.046 91.787 C 31.548 92.289,33.374 92.459,34.052 92.067 C 34.274 91.938,33.990 91.908,32.969 91.954 C 30.687 92.055,30.135 91.014,31.210 88.638 C 33.567 83.425,40.437 78.809,42.007 81.384 C 43.476 83.792,40.352 88.676,35.778 91.121 C 35.029 91.522,34.604 91.801,34.833 91.741 C 36.664 91.266,39.772 88.648,41.252 86.333 C 43.668 82.556,42.396 79.453,38.956 80.730 M57.396 81.141 C 54.508 83.232,49.910 92.412,51.497 92.916 C 52.101 93.108,54.323 91.195,55.757 89.250 C 56.027 88.883,56.286 88.546,56.332 88.500 C 57.327 87.516,59.170 83.347,59.164 82.095 C 59.159 81.145,58.913 81.185,58.897 82.138 C 58.844 85.312,52.989 93.670,51.474 92.734 C 49.962 91.799,56.747 80.253,58.430 80.899 C 58.575 80.954,58.640 80.925,58.582 80.831 C 58.413 80.557,58.083 80.643,57.396 81.141 M21.000 82.314 C 16.580 83.756,13.935 89.000,17.628 89.000 C 20.231 89.000,24.732 85.498,24.110 83.957 C 24.064 83.843,24.020 83.901,24.013 84.086 C 23.903 86.901,16.840 90.385,16.083 87.998 C 15.180 85.154,22.341 80.591,23.842 83.053 C 24.024 83.351,24.166 83.468,24.166 83.321 C 24.168 82.503,22.270 81.900,21.000 82.314 M40.062 95.178 C 37.618 96.464,34.500 99.646,34.741 100.609 C 35.084 101.974,39.592 99.543,41.601 96.908 C 42.950 95.140,42.052 94.131,40.062 95.178 M41.898 95.705 C 41.850 97.288,37.556 100.674,35.523 100.733 C 34.592 100.759,34.639 100.274,35.685 99.076 C 38.604 95.731,41.952 93.915,41.898 95.705 M46.880 97.229 C 45.250 98.383,43.167 100.423,43.167 100.867 C 43.167 101.976,46.278 99.819,47.787 97.664 C 48.327 96.894,47.747 96.616,46.880 97.229 M47.205 98.115 C 45.498 100.138,43.335 101.633,43.333 100.792 C 43.332 100.510,45.797 98.166,46.776 97.517 C 47.865 96.796,48.073 97.086,47.205 98.115 " stroke="none" fill="#048c78" fill-rule="evenodd"></path><path id="path4" d="M57.005 37.292 C 57.008 37.360,57.121 37.562,57.255 37.740 C 57.505 38.070,57.581 37.906,57.399 37.430 C 57.297 37.165,56.995 37.059,57.005 37.292 M55.741 38.808 C 56.914 42.133,59.311 43.094,58.293 39.831 C 58.030 38.990,57.821 38.960,58.014 39.792 C 58.645 42.512,57.254 42.077,56.149 39.209 C 55.719 38.092,55.366 37.746,55.741 38.808 M46.611 38.611 C 46.387 38.836,46.508 39.034,46.748 38.835 C 47.424 38.274,49.500 40.397,49.500 41.650 C 49.500 41.751,49.575 41.833,49.667 41.833 C 49.906 41.833,49.884 41.749,49.382 40.724 C 48.582 39.091,47.192 38.030,46.611 38.611 M42.350 39.917 C 42.355 40.498,42.378 40.538,42.529 40.225 C 42.650 39.976,42.648 39.774,42.523 39.559 C 42.374 39.302,42.345 39.362,42.350 39.917 M46.244 40.446 C 46.283 40.920,46.385 41.445,46.472 41.612 C 46.558 41.780,46.802 42.315,47.015 42.803 C 47.708 44.395,49.064 45.258,49.724 44.529 C 50.015 44.207,50.137 42.000,49.864 42.000 C 49.790 42.000,49.761 42.440,49.799 42.977 C 50.038 46.273,47.274 44.266,46.388 40.500 L 46.173 39.583 46.244 40.446 M39.167 40.837 C 39.167 40.927,39.279 41.000,39.417 41.000 C 39.554 41.000,39.667 41.066,39.667 41.147 C 39.667 41.228,39.817 41.334,40.000 41.382 C 40.527 41.519,40.381 41.278,39.746 40.962 C 39.427 40.803,39.167 40.747,39.167 40.837 M41.977 40.994 C 41.760 41.175,41.665 41.325,41.766 41.328 C 41.866 41.331,42.084 41.183,42.250 41.000 C 42.636 40.573,42.486 40.570,41.977 40.994 M59.730 41.243 C 59.679 41.374,59.674 41.616,59.717 41.782 C 59.778 42.021,59.799 42.005,59.814 41.708 C 59.876 40.505,61.639 43.809,61.940 45.693 C 62.170 47.130,61.329 45.891,60.337 43.333 C 60.071 42.646,59.848 42.220,59.843 42.387 C 59.817 43.199,61.475 46.500,61.909 46.500 C 62.342 46.500,62.341 46.207,61.898 44.805 C 61.110 42.304,60.013 40.504,59.730 41.243 M40.708 41.448 C 40.869 41.490,41.131 41.490,41.292 41.448 C 41.452 41.406,41.321 41.372,41.000 41.372 C 40.679 41.372,40.548 41.406,40.708 41.448 M39.608 46.075 C 38.662 46.952,39.050 48.587,40.517 49.912 C 43.066 52.215,45.965 51.002,44.575 48.213 C 43.546 46.147,40.803 44.967,39.608 46.075 M42.265 46.247 C 43.853 47.039,44.973 48.760,44.647 49.906 C 44.156 51.629,40.992 50.884,39.742 48.751 C 38.492 46.618,40.003 45.120,42.265 46.247 M58.590 46.597 C 58.122 47.311,57.902 48.893,58.145 49.801 C 58.863 52.485,60.882 51.620,60.613 48.743 C 60.424 46.715,59.296 45.519,58.590 46.597 M59.491 46.495 C 60.651 47.116,60.623 51.308,59.459 51.134 C 58.742 51.027,58.417 50.267,58.417 48.696 C 58.417 46.873,58.786 46.118,59.491 46.495 M30.358 50.476 C 26.229 51.946,26.753 56.109,31.194 57.112 C 35.380 58.058,39.215 54.761,37.076 52.056 C 35.814 50.460,32.556 49.694,30.358 50.476 M34.329 50.597 C 37.960 51.676,38.543 54.806,35.412 56.417 C 33.234 57.537,29.393 56.885,28.248 55.200 C 26.363 52.426,30.343 49.414,34.329 50.597 M62.406 50.742 C 61.284 52.456,62.703 58.342,63.915 57.002 C 64.261 56.620,64.206 52.639,63.850 52.284 C 63.749 52.183,63.667 51.961,63.667 51.792 C 63.667 50.820,62.818 50.114,62.406 50.742 M63.183 51.030 C 63.817 52.215,64.251 56.417,63.780 56.808 C 63.071 57.397,62.461 55.954,62.367 53.467 C 62.268 50.851,62.583 49.909,63.183 51.030 M41.504 58.513 C 40.536 58.707,39.554 59.416,38.875 60.411 C 36.871 63.346,41.000 65.153,43.722 62.532 C 45.992 60.347,44.633 57.885,41.504 58.513 M44.099 59.182 C 45.044 60.069,44.481 61.951,42.997 62.867 C 40.931 64.143,38.667 63.587,38.667 61.803 C 38.667 59.444,42.441 57.624,44.099 59.182 M59.964 58.792 C 59.261 59.598,59.160 60.479,59.610 61.885 C 60.516 64.718,62.333 64.513,62.333 61.578 C 62.333 59.590,60.820 57.810,59.964 58.792 M61.081 59.028 C 62.312 59.996,62.379 63.667,61.166 63.667 C 60.155 63.667,59.213 60.506,59.858 59.281 C 60.225 58.584,60.456 58.536,61.081 59.028 M64.040 60.208 C 63.577 60.785,63.115 66.787,63.499 67.248 C 64.097 67.969,64.431 66.440,64.738 61.584 C 64.820 60.279,64.496 59.640,64.040 60.208 M64.426 62.375 C 64.220 66.444,63.561 69.178,63.652 65.583 C 63.724 62.746,64.041 60.333,64.343 60.333 C 64.476 60.333,64.500 60.919,64.426 62.375 M47.579 67.693 C 45.782 69.270,44.600 72.647,45.411 73.885 C 45.577 74.137,45.747 74.309,45.790 74.266 C 45.832 74.223,45.747 74.017,45.600 73.807 C 44.834 72.713,45.877 69.618,47.534 68.068 C 50.380 65.406,50.691 70.419,47.863 73.375 C 47.172 74.098,47.246 74.220,47.964 73.542 C 50.888 70.778,50.515 65.115,47.579 67.693 M62.218 68.749 C 60.948 69.639,59.401 75.843,60.192 76.877 C 60.384 77.128,60.418 76.888,60.427 75.210 C 60.447 71.447,62.250 67.454,63.161 69.156 C 63.717 70.194,62.923 74.008,61.701 76.167 C 61.504 76.514,61.537 76.500,61.898 76.083 C 63.763 73.928,64.045 67.470,62.218 68.749 M37.875 69.020 C 37.142 69.231,37.190 69.354,37.958 69.233 C 38.702 69.116,39.282 68.838,38.750 68.853 C 38.567 68.859,38.173 68.934,37.875 69.020 M39.583 68.974 C 40.997 69.355,41.343 69.786,41.306 71.125 C 41.280 72.098,41.473 72.869,41.522 71.986 C 41.646 69.760,41.247 69.039,39.818 68.908 C 39.217 68.852,39.175 68.864,39.583 68.974 M46.458 74.119 C 46.206 74.158,46.000 74.259,46.000 74.344 C 46.000 74.583,46.565 74.529,46.926 74.255 C 47.104 74.121,47.175 74.019,47.083 74.030 C 46.992 74.041,46.710 74.081,46.458 74.119 M51.513 76.654 C 51.947 77.088,52.000 77.254,52.000 78.182 C 52.000 79.332,52.164 79.425,52.253 78.325 C 52.331 77.352,51.753 76.167,51.202 76.167 C 51.105 76.167,51.245 76.386,51.513 76.654 M50.000 76.583 C 49.741 76.895,49.954 76.895,50.500 76.583 C 50.892 76.359,50.896 76.345,50.562 76.339 C 50.367 76.336,50.114 76.446,50.000 76.583 M49.163 77.254 C 48.841 77.642,49.071 77.715,49.416 77.334 C 49.582 77.150,49.641 77.000,49.546 77.000 C 49.452 77.000,49.279 77.114,49.163 77.254 " stroke="none" fill="#24247c" fill-rule="evenodd"></path></g></svg>