<svg id="svg" version="1.1" xmlns="http://www.w3.org/2000/svg" xmlns:xlink="http://www.w3.org/1999/xlink" width="400" height="126.94444444444444" viewBox="0, 0, 400,126.94444444444444"><g id="svgg"><path id="path0" d="M48.778 7.444 C 48.529 7.694,49.027 8.667,49.404 8.667 C 49.467 8.667,49.983 9.008,50.551 9.424 C 52.957 11.190,53.856 11.615,54.060 11.083 C 54.361 10.299,49.365 6.857,48.778 7.444 M28.250 11.000 C 28.705 11.116,28.682 11.129,27.992 11.147 C 25.228 11.219,24.925 14.246,27.476 16.295 C 27.902 16.637,28.287 16.954,28.333 17.000 C 28.488 17.155,29.080 17.500,29.497 17.678 C 29.725 17.775,30.169 17.977,30.485 18.127 C 31.222 18.476,33.228 18.441,33.797 18.068 C 35.041 17.253,34.755 14.945,33.215 13.363 C 33.097 13.242,33.000 13.073,33.000 12.988 C 33.000 12.903,32.920 12.833,32.822 12.833 C 32.724 12.833,32.317 12.609,31.918 12.334 C 31.306 11.913,30.493 11.493,30.167 11.428 C 30.121 11.419,29.990 11.352,29.875 11.279 C 29.760 11.207,29.605 11.185,29.530 11.232 C 29.454 11.278,29.183 11.208,28.927 11.075 C 28.671 10.942,28.302 10.842,28.106 10.853 C 27.840 10.868,27.876 10.905,28.250 11.000 M45.563 12.467 C 42.183 12.714,44.197 19.091,48.699 22.396 C 49.277 22.820,49.841 23.243,49.951 23.334 C 50.062 23.425,50.264 23.500,50.400 23.500 C 50.536 23.500,50.687 23.564,50.735 23.642 C 50.979 24.037,53.252 23.858,53.672 23.411 C 54.210 22.839,54.419 20.734,53.984 20.276 C 53.838 20.122,53.631 19.706,53.525 19.352 C 53.261 18.471,51.874 16.409,50.938 15.507 C 50.514 15.098,50.167 14.667,50.167 14.549 C 50.167 14.430,50.110 14.352,50.042 14.374 C 49.859 14.435,48.333 13.306,48.333 13.111 C 48.333 13.019,48.283 12.995,48.222 13.056 C 48.160 13.118,47.949 13.062,47.752 12.934 C 47.239 12.597,46.356 12.409,45.563 12.467 M60.208 15.777 C 59.920 15.893,59.947 16.582,60.250 16.833 C 60.387 16.947,60.500 17.115,60.500 17.206 C 60.500 17.805,65.076 23.377,66.073 23.994 C 69.061 25.840,65.029 18.441,61.947 16.421 C 61.703 16.261,61.552 16.051,61.612 15.953 C 61.680 15.844,61.618 15.816,61.449 15.881 C 61.300 15.938,61.133 15.914,61.079 15.826 C 60.975 15.658,60.560 15.635,60.208 15.777 M56.864 20.489 C 56.620 20.891,56.576 21.154,56.673 21.631 C 56.742 21.971,56.853 22.512,56.920 22.833 C 57.846 27.320,63.000 32.098,63.000 28.470 C 63.000 25.218,57.968 18.674,56.864 20.489 M43.667 25.962 C 42.579 26.135,41.882 27.533,42.083 29.141 C 42.197 30.051,42.264 30.265,42.873 31.667 C 43.248 32.528,44.980 34.909,45.126 34.763 C 45.180 34.709,45.051 34.482,44.841 34.258 C 44.624 34.027,44.500 33.740,44.555 33.596 C 44.611 33.451,44.531 33.274,44.368 33.181 C 44.127 33.046,44.119 32.987,44.313 32.802 C 44.493 32.630,44.558 32.627,44.618 32.792 C 44.660 32.906,44.850 33.000,45.040 33.000 C 45.379 33.000,45.380 32.994,45.071 32.653 C 44.757 32.306,44.758 32.306,45.212 32.513 C 45.732 32.750,45.976 32.623,45.682 32.269 C 45.519 32.072,45.579 32.009,46.024 31.911 C 46.747 31.753,47.052 31.426,46.906 30.967 C 46.792 30.606,46.797 30.604,47.228 30.887 C 47.654 31.166,47.667 31.164,47.667 30.822 C 47.667 30.617,47.798 30.435,47.979 30.387 C 48.373 30.284,48.748 29.605,48.576 29.308 C 48.505 29.184,48.646 29.265,48.890 29.487 C 49.134 29.710,49.333 29.991,49.333 30.112 C 49.333 30.234,49.398 30.333,49.477 30.333 C 49.556 30.333,49.797 30.667,50.014 31.074 C 50.544 32.074,50.630 31.911,50.112 30.889 C 49.477 29.637,48.239 28.084,47.283 27.342 C 46.807 26.972,46.323 26.591,46.208 26.495 C 46.094 26.399,46.000 26.362,46.000 26.414 C 46.000 26.465,45.831 26.402,45.625 26.274 C 45.201 26.009,44.288 25.864,43.667 25.962 M24.136 28.654 C 23.889 28.734,23.652 28.763,23.608 28.719 C 23.565 28.676,23.335 28.767,23.099 28.922 C 22.863 29.077,22.552 29.158,22.409 29.104 C 22.251 29.043,22.192 29.073,22.258 29.180 C 22.318 29.277,22.228 29.396,22.058 29.445 C 21.541 29.594,20.524 30.961,20.255 31.870 C 19.580 34.142,21.658 37.688,24.936 39.859 C 25.521 40.246,26.000 40.629,26.000 40.708 C 26.000 40.788,26.062 40.815,26.138 40.768 C 26.214 40.721,26.791 40.941,27.420 41.258 C 28.049 41.574,28.650 41.833,28.755 41.833 C 28.859 41.833,29.420 41.989,30.002 42.180 C 31.051 42.525,35.167 42.760,35.167 42.475 C 35.167 42.412,35.400 42.309,35.685 42.246 C 35.970 42.183,36.326 42.033,36.477 41.911 C 36.627 41.789,36.978 41.503,37.257 41.276 C 38.213 40.496,39.092 37.782,38.506 37.420 C 38.411 37.362,38.333 37.185,38.333 37.027 C 38.333 36.393,37.135 34.275,36.252 33.349 C 35.747 32.820,35.390 32.332,35.459 32.263 C 35.527 32.195,35.504 32.164,35.406 32.194 C 35.241 32.246,34.474 31.733,33.877 31.171 C 33.734 31.037,33.459 30.844,33.267 30.743 C 32.593 30.389,32.081 30.082,31.813 29.868 C 31.664 29.750,31.476 29.669,31.396 29.688 C 31.316 29.708,30.912 29.582,30.500 29.408 C 30.087 29.234,29.656 29.111,29.542 29.136 C 29.427 29.161,29.333 29.099,29.333 28.997 C 29.333 28.896,29.258 28.860,29.167 28.917 C 29.075 28.973,28.906 28.959,28.792 28.885 C 28.677 28.811,28.358 28.734,28.083 28.715 C 25.732 28.550,24.516 28.532,24.136 28.654 M69.667 29.052 C 69.667 29.081,69.910 29.325,70.208 29.594 L 70.750 30.083 70.260 29.542 C 69.804 29.037,69.667 28.923,69.667 29.052 M50.587 32.333 C 50.899 33.569,50.966 33.749,50.983 33.394 C 50.992 33.198,50.883 32.786,50.741 32.477 C 50.570 32.109,50.518 32.059,50.587 32.333 M65.335 32.830 C 65.145 33.185,65.174 35.843,65.367 35.727 C 65.431 35.689,65.534 35.930,65.597 36.263 C 66.252 39.757,69.110 41.728,69.027 38.627 C 68.944 35.553,66.192 31.230,65.335 32.830 M45.537 35.194 C 45.572 35.301,45.785 35.504,46.009 35.645 L 46.417 35.901 46.013 35.451 C 45.576 34.964,45.435 34.888,45.537 35.194 M38.322 38.708 C 38.289 39.289,38.023 39.575,38.012 39.042 C 38.005 38.744,38.075 38.500,38.167 38.500 C 38.258 38.500,38.328 38.594,38.322 38.708 M37.667 40.250 C 37.549 40.392,37.415 40.471,37.369 40.425 C 37.323 40.379,37.382 40.225,37.500 40.083 C 37.618 39.941,37.752 39.863,37.798 39.909 C 37.843 39.954,37.784 40.108,37.667 40.250 M6.667 48.685 C 0.966 49.569,-0.674 54.143,3.924 56.337 C 4.496 56.610,5.074 56.833,5.207 56.833 C 5.655 56.833,6.501 57.197,6.407 57.350 C 6.355 57.432,6.487 57.499,6.698 57.497 C 7.007 57.495,7.034 57.463,6.833 57.335 C 6.665 57.228,7.056 57.188,8.026 57.213 C 9.029 57.239,9.423 57.304,9.321 57.429 C 9.221 57.552,9.336 57.584,9.688 57.532 C 10.027 57.483,10.128 57.413,9.987 57.325 C 9.850 57.240,10.008 57.155,10.428 57.086 C 10.789 57.027,11.251 56.911,11.456 56.827 C 11.662 56.744,11.955 56.724,12.109 56.783 C 12.283 56.850,12.347 56.824,12.279 56.714 C 12.219 56.617,12.402 56.443,12.691 56.323 C 15.401 55.201,15.734 52.076,13.349 50.160 C 12.979 49.862,12.705 49.573,12.739 49.518 C 12.773 49.462,12.584 49.401,12.319 49.382 C 12.054 49.363,11.667 49.254,11.460 49.140 C 11.253 49.026,10.971 48.915,10.833 48.893 C 10.696 48.871,10.321 48.801,10.000 48.739 C 9.166 48.575,7.542 48.549,6.667 48.685 M26.583 65.780 C 25.942 65.917,25.304 66.045,25.167 66.066 C 25.029 66.087,24.751 66.194,24.548 66.304 C 24.346 66.414,24.121 66.491,24.048 66.475 C 23.786 66.416,22.284 67.183,21.088 67.986 C 20.415 68.438,19.820 68.777,19.765 68.738 C 19.711 68.699,19.688 68.701,19.715 68.742 C 19.741 68.784,19.235 69.374,18.590 70.054 C 17.605 71.090,16.488 72.770,16.497 73.197 C 16.499 73.260,16.414 73.523,16.310 73.781 C 15.852 74.909,16.336 76.797,17.367 77.906 C 17.532 78.084,17.668 78.272,17.669 78.323 C 17.670 78.375,17.967 78.559,18.330 78.733 C 18.693 78.906,18.943 79.124,18.886 79.217 C 18.825 79.315,18.866 79.333,18.984 79.260 C 19.190 79.133,20.167 79.452,20.167 79.646 C 20.167 79.704,20.598 79.773,21.125 79.800 C 22.273 79.857,22.705 79.970,22.576 80.179 C 22.523 80.264,22.629 80.333,22.810 80.333 C 22.991 80.333,23.173 80.240,23.214 80.125 C 23.274 79.961,23.362 79.959,23.633 80.119 C 23.865 80.256,23.995 80.264,24.035 80.145 C 24.067 80.049,24.616 79.905,25.255 79.826 C 25.894 79.747,26.529 79.654,26.667 79.620 C 27.434 79.430,29.225 78.811,29.661 78.586 C 29.939 78.442,30.168 78.383,30.169 78.454 C 30.171 78.525,30.227 78.501,30.294 78.400 C 30.362 78.300,30.792 78.009,31.250 77.756 C 34.737 75.825,37.363 71.482,36.191 69.583 C 36.013 69.294,36.001 69.327,36.104 69.833 C 36.253 70.571,36.203 71.364,35.994 71.572 C 35.906 71.661,35.833 71.943,35.833 72.200 C 35.833 72.457,35.758 72.667,35.667 72.667 C 35.575 72.667,35.500 72.784,35.500 72.927 C 35.500 73.069,35.425 73.140,35.333 73.083 C 35.221 73.014,35.221 72.876,35.333 72.668 C 35.565 72.234,35.542 72.000,35.266 72.000 C 35.113 72.000,35.062 71.883,35.118 71.667 C 35.167 71.482,35.346 71.333,35.519 71.333 C 35.692 71.333,35.833 71.258,35.833 71.167 C 35.833 71.075,35.674 71.000,35.479 71.000 C 35.158 71.000,35.134 70.936,35.231 70.333 C 35.359 69.531,35.232 69.474,34.928 70.196 L 34.706 70.724 34.590 70.196 C 34.526 69.905,34.386 69.664,34.278 69.661 C 34.171 69.658,34.233 69.537,34.417 69.392 C 34.648 69.209,34.686 69.104,34.542 69.050 C 34.427 69.007,34.333 68.840,34.333 68.679 C 34.333 68.517,34.183 68.249,34.000 68.083 C 33.817 67.917,33.667 67.665,33.667 67.522 C 33.667 67.379,33.460 67.090,33.208 66.879 L 32.750 66.495 33.500 66.778 C 33.912 66.933,34.289 67.103,34.337 67.155 C 34.914 67.786,35.677 68.362,35.440 67.989 C 34.213 66.056,30.103 65.030,26.583 65.780 M35.000 71.417 C 35.000 71.554,34.925 71.667,34.833 71.667 C 34.742 71.667,34.667 71.554,34.667 71.417 C 34.667 71.279,34.742 71.167,34.833 71.167 C 34.925 71.167,35.000 71.279,35.000 71.417 M69.861 73.324 C 69.271 73.932,68.172 76.181,68.066 76.995 C 68.048 77.135,67.947 77.683,67.841 78.212 C 67.633 79.253,67.707 81.287,67.972 81.781 C 68.320 82.432,68.787 82.719,69.098 82.475 C 70.420 81.435,71.016 80.513,71.604 78.600 C 71.747 78.133,71.905 77.637,71.955 77.500 C 72.004 77.362,72.053 76.519,72.064 75.625 C 72.096 72.964,71.160 71.987,69.861 73.324 M41.224 77.215 C 41.118 77.326,40.668 77.763,40.224 78.186 C 37.004 81.252,36.248 84.901,38.622 85.917 C 39.204 86.166,41.949 86.209,42.263 85.974 C 42.362 85.900,42.604 85.815,42.800 85.785 C 42.997 85.755,43.214 85.675,43.282 85.607 C 43.349 85.539,43.720 85.345,44.105 85.174 C 44.858 84.841,46.558 83.644,46.773 83.295 C 46.845 83.179,46.532 83.367,46.077 83.714 C 44.707 84.760,43.423 85.073,44.354 84.135 C 44.754 83.731,44.765 83.688,44.479 83.613 C 44.307 83.568,44.125 83.599,44.074 83.682 C 43.906 83.954,43.667 83.841,43.667 83.489 C 43.667 83.236,43.589 83.169,43.374 83.237 C 43.058 83.338,42.129 82.482,41.579 81.583 C 41.411 81.308,41.163 80.992,41.029 80.880 C 40.827 80.713,40.822 80.631,40.999 80.418 C 41.117 80.275,41.168 80.112,41.111 80.056 C 40.966 79.910,40.500 80.328,40.500 80.604 C 40.500 80.730,40.425 80.833,40.333 80.833 C 40.101 80.833,40.124 80.276,40.367 80.033 C 40.522 79.878,40.522 79.833,40.367 79.833 C 40.257 79.833,40.167 79.716,40.167 79.572 C 40.167 79.387,40.070 79.342,39.833 79.417 C 39.270 79.595,39.454 79.285,40.603 78.119 C 41.210 77.504,41.641 77.003,41.561 77.006 C 41.482 77.010,41.330 77.104,41.224 77.215 M47.406 82.542 L 46.917 83.083 47.458 82.594 C 47.756 82.325,48.000 82.081,48.000 82.052 C 48.000 81.923,47.862 82.037,47.406 82.542 M58.370 89.726 C 56.212 93.383,55.357 97.227,56.442 98.397 C 56.991 98.988,58.180 98.942,58.918 98.301 C 59.161 98.090,59.410 97.913,59.472 97.909 C 59.583 97.902,61.167 96.338,61.167 96.235 C 61.167 96.206,61.472 95.747,61.844 95.216 C 62.775 93.890,64.155 90.933,63.943 90.721 C 63.887 90.665,63.797 90.761,63.743 90.934 C 63.540 91.591,62.744 93.161,62.614 93.164 C 62.539 93.165,62.525 93.017,62.583 92.833 C 62.714 92.423,62.413 92.391,62.180 92.792 C 62.074 92.974,62.008 93.001,62.005 92.864 C 62.002 92.721,61.884 92.681,61.667 92.750 C 61.483 92.808,61.333 92.781,61.333 92.689 C 61.333 92.597,61.483 92.475,61.667 92.417 C 61.850 92.358,62.000 92.194,62.000 92.052 C 62.000 91.863,61.943 91.840,61.792 91.965 C 61.330 92.348,59.745 92.269,59.802 91.866 C 59.856 91.487,59.451 91.341,59.250 91.667 C 59.149 91.830,57.667 91.911,57.667 91.753 C 57.667 91.528,58.263 90.190,58.546 89.782 C 58.724 89.525,58.833 89.278,58.789 89.233 C 58.744 89.189,58.556 89.410,58.370 89.726 M46.917 91.288 C 46.642 91.327,46.345 91.428,46.258 91.513 C 46.171 91.597,45.965 91.667,45.800 91.667 C 45.635 91.667,45.499 91.723,45.498 91.792 C 45.497 91.860,45.085 92.100,44.582 92.324 C 44.078 92.547,43.667 92.793,43.667 92.870 C 43.667 92.947,43.535 93.058,43.375 93.117 C 43.215 93.175,42.708 93.529,42.250 93.903 C 41.792 94.277,41.319 94.658,41.200 94.750 C 39.707 95.897,35.667 100.984,35.667 101.717 C 35.667 101.812,35.567 102.009,35.446 102.154 C 34.764 102.968,34.505 106.099,35.077 106.620 C 35.156 106.692,35.157 106.639,35.078 106.500 C 34.956 106.285,34.975 106.282,35.216 106.477 C 35.370 106.602,35.455 106.771,35.405 106.852 C 35.355 106.933,35.374 107.006,35.448 107.014 C 35.523 107.022,35.771 107.059,36.000 107.097 C 37.009 107.264,38.133 107.239,38.734 107.036 C 39.092 106.916,39.483 106.855,39.604 106.901 C 39.724 106.948,39.870 106.909,39.928 106.815 C 39.986 106.721,40.143 106.686,40.276 106.737 C 40.411 106.789,40.472 106.757,40.415 106.665 C 40.359 106.574,40.436 106.500,40.585 106.500 C 40.735 106.500,40.970 106.388,41.107 106.250 C 41.245 106.112,41.502 106.000,41.679 106.000 C 41.855 106.000,42.000 105.925,42.000 105.833 C 42.000 105.742,42.098 105.667,42.218 105.667 C 43.039 105.667,47.054 102.219,48.433 100.329 C 52.527 94.722,51.834 90.588,46.917 91.288 M71.991 91.975 C 71.347 92.387,70.571 93.153,69.663 94.271 C 69.351 94.655,67.333 97.666,67.333 97.747 C 67.333 97.779,66.986 98.393,66.561 99.111 C 65.020 101.714,63.381 105.555,63.241 106.892 C 62.970 109.471,65.422 107.966,69.480 103.060 C 71.639 100.450,74.028 95.216,73.988 93.182 C 73.967 92.094,73.691 91.813,73.678 92.865 C 73.666 93.880,73.444 94.215,73.097 93.741 C 72.933 93.517,72.741 93.471,72.275 93.547 C 71.703 93.640,71.463 93.479,71.833 93.250 C 71.925 93.193,72.000 93.069,72.000 92.974 C 72.000 92.709,70.859 93.715,70.845 93.992 C 70.837 94.166,70.783 94.183,70.651 94.051 C 70.447 93.847,70.720 93.167,71.006 93.167 C 71.094 93.167,71.167 93.085,71.167 92.985 C 71.167 92.487,72.663 91.623,73.290 91.760 C 73.644 91.837,73.692 91.819,73.500 91.683 C 73.106 91.403,72.787 91.465,71.991 91.975 M22.228 93.535 C 22.184 93.608,21.960 93.667,21.732 93.667 C 21.504 93.667,21.096 93.781,20.825 93.921 C 20.555 94.061,20.333 94.130,20.333 94.076 C 20.333 94.021,20.215 94.095,20.070 94.240 C 19.925 94.385,19.729 94.455,19.635 94.397 C 19.540 94.338,19.415 94.361,19.356 94.448 C 19.126 94.788,16.693 96.471,16.586 96.364 C 16.523 96.301,16.496 96.325,16.525 96.417 C 16.591 96.625,15.312 98.311,15.077 98.324 C 14.982 98.329,14.896 98.465,14.885 98.625 C 14.864 98.943,14.384 100.383,14.121 100.917 C 14.030 101.100,14.017 101.193,14.092 101.122 C 14.167 101.052,14.322 101.219,14.438 101.494 C 14.553 101.769,14.877 102.133,15.157 102.303 C 15.436 102.473,15.633 102.644,15.594 102.683 C 15.220 103.057,18.536 102.511,19.375 102.061 C 19.627 101.925,19.833 101.868,19.833 101.933 C 19.833 101.998,19.979 101.920,20.156 101.760 C 20.334 101.599,20.551 101.512,20.639 101.566 C 20.727 101.620,20.836 101.571,20.881 101.457 C 20.926 101.343,21.253 101.101,21.607 100.918 C 21.961 100.736,22.305 100.511,22.372 100.418 C 22.440 100.326,22.496 100.312,22.497 100.388 C 22.499 100.464,22.694 100.295,22.932 100.012 C 23.169 99.730,23.443 99.548,23.541 99.609 C 23.638 99.669,23.671 99.642,23.614 99.550 C 23.497 99.360,24.213 98.617,24.387 98.748 C 24.449 98.795,24.463 98.784,24.418 98.724 C 24.373 98.663,24.403 98.532,24.484 98.432 C 24.783 98.063,25.333 96.983,25.333 96.765 C 25.333 96.642,25.443 96.450,25.576 96.339 C 26.010 95.979,25.389 94.159,24.699 93.764 C 24.248 93.507,22.354 93.331,22.228 93.535 M73.500 94.533 C 73.500 94.803,73.451 94.851,73.315 94.715 C 73.213 94.613,73.179 94.448,73.241 94.348 C 73.413 94.069,73.500 94.131,73.500 94.533 M48.333 111.236 C 48.333 111.320,48.287 111.342,48.230 111.286 C 48.173 111.229,48.017 111.292,47.883 111.426 C 47.749 111.560,47.571 111.627,47.487 111.575 C 47.402 111.523,47.333 111.544,47.333 111.621 C 47.333 111.752,46.562 112.277,46.298 112.325 C 46.233 112.336,45.966 112.550,45.704 112.798 C 45.443 113.047,44.907 113.513,44.513 113.833 C 44.119 114.154,43.416 114.806,42.951 115.282 C 42.485 115.758,42.041 116.109,41.964 116.061 C 41.888 116.014,41.846 116.075,41.871 116.196 C 41.896 116.318,41.805 116.392,41.667 116.361 C 41.529 116.331,41.469 116.357,41.532 116.421 C 41.595 116.484,41.389 116.911,41.074 117.370 C 40.467 118.253,40.307 119.151,40.750 119.188 C 40.887 119.199,41.094 119.221,41.208 119.236 C 41.323 119.252,41.679 119.200,42.000 119.122 C 42.321 119.044,42.696 118.974,42.833 118.967 C 42.971 118.960,43.166 118.890,43.267 118.810 C 43.772 118.415,45.047 117.843,45.205 117.940 C 45.308 118.004,45.337 117.974,45.273 117.871 C 45.212 117.772,45.313 117.643,45.498 117.584 C 45.682 117.525,45.833 117.408,45.833 117.322 C 45.833 117.237,45.934 117.167,46.058 117.167 C 46.181 117.167,46.416 117.018,46.580 116.837 C 46.744 116.656,46.935 116.543,47.005 116.586 C 47.075 116.629,47.175 116.552,47.228 116.413 C 47.281 116.275,47.514 116.090,47.746 116.002 C 47.977 115.914,48.167 115.719,48.167 115.570 C 48.167 115.401,48.258 115.333,48.408 115.390 C 48.552 115.446,48.620 115.402,48.576 115.283 C 48.535 115.173,48.792 114.780,49.147 114.409 C 50.365 113.139,50.894 111.757,50.351 111.266 C 50.014 110.961,48.333 110.936,48.333 111.236 M57.583 114.141 C 55.133 115.643,51.889 118.960,52.385 119.457 C 52.988 120.059,56.136 117.655,57.974 115.188 C 58.873 113.982,58.682 113.468,57.583 114.141 " stroke="none" fill="#1f9bf2" fill-rule="evenodd"></path><path id="path1" d="M69.160 29.258 C 68.298 30.297,70.715 36.755,72.097 37.102 C 72.644 37.239,73.001 36.908,72.994 36.271 C 72.964 33.589,70.026 28.215,69.160 29.258 M48.576 29.308 C 48.748 29.605,48.373 30.284,47.979 30.387 C 47.798 30.435,47.667 30.617,47.667 30.822 C 47.667 31.164,47.654 31.166,47.228 30.887 C 46.797 30.604,46.792 30.606,46.906 30.967 C 47.052 31.426,46.747 31.753,46.024 31.911 C 45.579 32.009,45.519 32.072,45.682 32.269 C 45.976 32.623,45.732 32.750,45.212 32.513 C 44.758 32.306,44.757 32.306,45.071 32.653 C 45.380 32.994,45.379 33.000,45.040 33.000 C 44.850 33.000,44.660 32.906,44.618 32.792 C 44.558 32.627,44.493 32.630,44.313 32.802 C 44.119 32.987,44.126 33.045,44.359 33.177 C 44.515 33.264,44.602 33.462,44.558 33.629 C 44.397 34.244,46.795 36.275,48.170 36.688 C 48.916 36.912,48.916 36.912,48.417 37.020 C 48.021 37.105,48.101 37.131,48.802 37.147 C 49.288 37.158,49.647 37.103,49.599 37.025 C 49.551 36.947,49.703 36.781,49.936 36.656 C 50.803 36.192,51.056 35.594,50.945 34.276 C 50.814 32.712,49.923 30.333,49.469 30.333 C 49.395 30.333,49.333 30.234,49.333 30.112 C 49.333 29.991,49.134 29.710,48.890 29.487 C 48.646 29.265,48.505 29.184,48.576 29.308 M57.382 33.034 C 54.988 33.654,57.993 41.837,60.443 41.369 C 62.162 41.040,61.291 36.167,59.120 33.970 C 58.155 32.993,57.955 32.886,57.382 33.034 M75.097 36.942 C 74.809 37.692,77.393 43.667,78.005 43.667 C 78.447 43.667,78.423 43.364,77.843 41.633 C 76.658 38.101,75.446 36.031,75.097 36.942 M38.012 39.042 C 38.022 39.496,38.047 39.529,38.167 39.250 C 38.365 38.790,38.365 38.500,38.167 38.500 C 38.075 38.500,38.005 38.744,38.012 39.042 M37.500 40.083 C 37.382 40.225,37.323 40.379,37.369 40.425 C 37.415 40.471,37.549 40.392,37.667 40.250 C 37.784 40.108,37.843 39.954,37.798 39.909 C 37.752 39.863,37.618 39.941,37.500 40.083 M47.540 43.221 C 45.983 44.086,46.409 46.650,48.410 48.458 C 51.603 51.343,55.284 50.216,53.988 46.750 C 53.041 44.220,49.365 42.208,47.540 43.221 M73.712 44.118 C 72.345 46.204,73.025 50.500,74.722 50.500 C 76.327 50.500,76.400 45.050,74.811 43.936 C 74.275 43.561,74.053 43.597,73.712 44.118 M35.583 49.348 C 31.246 49.956,29.182 54.045,31.896 56.651 C 32.221 56.964,32.441 57.294,32.384 57.385 C 32.328 57.477,32.364 57.501,32.463 57.439 C 32.563 57.378,33.006 57.489,33.447 57.688 C 34.664 58.235,34.824 58.284,36.114 58.508 C 37.179 58.693,37.773 58.678,39.423 58.423 C 40.901 58.195,42.951 57.003,43.577 56.008 C 45.958 52.225,41.508 48.517,35.583 49.348 M78.784 50.083 C 78.078 51.562,78.602 56.645,79.594 57.945 C 80.845 59.585,81.411 57.409,80.748 53.506 C 80.147 49.963,79.434 48.720,78.784 50.083 M50.333 60.657 C 49.921 60.718,49.227 60.928,48.792 61.124 C 48.356 61.321,48.000 61.446,48.000 61.402 C 48.000 61.147,46.294 63.143,46.009 63.731 C 45.367 65.058,45.716 66.613,46.785 67.185 C 46.989 67.294,47.116 67.446,47.069 67.523 C 47.022 67.600,47.100 67.618,47.243 67.563 C 47.387 67.508,47.608 67.549,47.735 67.654 C 47.970 67.849,49.172 67.807,49.708 67.585 C 49.869 67.519,50.116 67.509,50.259 67.564 C 50.407 67.621,50.474 67.593,50.415 67.498 C 50.359 67.407,50.432 67.333,50.577 67.333 C 51.374 67.333,53.219 65.744,53.769 64.583 C 54.904 62.187,53.195 60.233,50.333 60.657 M75.356 61.226 C 74.061 62.605,75.361 67.833,76.999 67.833 C 78.853 67.833,78.734 62.233,76.856 61.123 C 76.193 60.731,75.795 60.759,75.356 61.226 M81.095 63.148 C 81.045 63.229,80.919 63.866,80.815 64.562 C 80.712 65.259,80.569 65.793,80.499 65.749 C 80.356 65.661,80.365 66.203,80.508 66.333 C 80.559 66.379,80.547 67.092,80.481 67.917 C 80.206 71.391,80.318 73.066,80.786 72.458 C 81.136 72.005,81.656 66.965,81.664 63.958 C 81.667 63.048,81.395 62.662,81.095 63.148 M33.208 66.879 C 33.460 67.090,33.667 67.379,33.667 67.522 C 33.667 67.665,33.817 67.917,34.000 68.083 C 34.183 68.249,34.333 68.517,34.333 68.679 C 34.333 68.840,34.427 69.007,34.542 69.050 C 34.686 69.104,34.648 69.209,34.417 69.392 C 34.233 69.537,34.171 69.658,34.278 69.661 C 34.386 69.664,34.526 69.905,34.590 70.196 L 34.706 70.724 34.928 70.196 C 35.232 69.474,35.359 69.531,35.231 70.333 C 35.134 70.936,35.158 71.000,35.479 71.000 C 35.674 71.000,35.833 71.075,35.833 71.167 C 35.833 71.258,35.692 71.333,35.519 71.333 C 35.346 71.333,35.167 71.482,35.118 71.667 C 35.062 71.883,35.113 72.000,35.266 72.000 C 35.542 72.000,35.565 72.234,35.333 72.668 C 35.221 72.876,35.221 73.014,35.333 73.083 C 35.425 73.140,35.500 73.069,35.500 72.927 C 35.500 72.784,35.575 72.667,35.667 72.667 C 35.758 72.667,35.833 72.457,35.833 72.200 C 35.833 71.943,35.910 71.657,36.004 71.563 C 36.983 70.583,35.363 67.489,33.500 66.780 L 32.750 66.495 33.208 66.879 M34.667 71.417 C 34.667 71.554,34.742 71.667,34.833 71.667 C 34.925 71.667,35.000 71.554,35.000 71.417 C 35.000 71.279,34.925 71.167,34.833 71.167 C 34.742 71.167,34.667 71.279,34.667 71.417 M59.083 72.904 C 57.675 73.537,56.135 75.888,55.190 78.845 C 54.225 81.868,56.051 83.406,58.340 81.498 C 61.854 78.571,62.476 71.380,59.083 72.904 M78.239 75.228 C 77.930 75.536,77.626 75.743,77.562 75.686 C 77.499 75.630,77.497 75.672,77.559 75.780 C 77.656 75.950,77.462 76.552,77.005 77.500 C 76.939 77.637,76.712 78.406,76.501 79.208 C 76.289 80.010,76.071 80.667,76.016 80.668 C 75.819 80.671,75.685 84.792,75.845 85.925 C 76.093 87.678,77.949 85.475,79.095 82.067 C 79.855 79.809,80.000 79.038,80.000 77.264 C 80.000 74.759,79.401 74.066,78.239 75.228 M46.583 75.168 C 44.896 75.291,44.380 75.434,43.224 76.098 C 41.336 77.182,38.678 79.783,39.833 79.417 C 40.070 79.342,40.167 79.387,40.167 79.572 C 40.167 79.716,40.257 79.833,40.367 79.833 C 40.522 79.833,40.522 79.878,40.367 80.033 C 40.124 80.276,40.101 80.833,40.333 80.833 C 40.425 80.833,40.500 80.730,40.500 80.604 C 40.500 80.328,40.966 79.910,41.111 80.056 C 41.168 80.112,41.117 80.275,40.999 80.418 C 40.822 80.631,40.827 80.713,41.029 80.880 C 41.163 80.992,41.411 81.308,41.579 81.583 C 42.129 82.482,43.058 83.338,43.374 83.237 C 43.589 83.169,43.667 83.236,43.667 83.489 C 43.667 83.841,43.906 83.954,44.074 83.682 C 44.125 83.599,44.325 83.573,44.519 83.623 C 44.823 83.703,44.835 83.736,44.604 83.865 C 44.458 83.947,44.253 84.172,44.150 84.365 C 43.602 85.389,46.134 83.909,47.552 82.377 C 49.930 79.807,50.368 76.781,48.539 75.560 C 48.198 75.332,48.073 75.165,48.206 75.111 C 48.322 75.065,48.342 75.034,48.250 75.042 C 48.158 75.051,47.408 75.108,46.583 75.168 M62.083 85.566 C 60.773 86.142,58.398 89.377,57.759 91.458 C 57.635 91.863,59.010 92.055,59.250 91.667 C 59.451 91.341,59.856 91.487,59.802 91.866 C 59.745 92.269,61.330 92.348,61.792 91.965 C 61.943 91.840,62.000 91.863,62.000 92.052 C 62.000 92.194,61.850 92.358,61.667 92.417 C 61.483 92.475,61.333 92.597,61.333 92.689 C 61.333 92.781,61.483 92.808,61.667 92.750 C 61.884 92.681,62.002 92.721,62.005 92.864 C 62.008 93.001,62.074 92.974,62.180 92.792 C 62.413 92.391,62.714 92.423,62.583 92.833 C 62.210 94.009,63.190 92.401,63.852 90.750 C 65.180 87.441,64.220 84.627,62.083 85.566 M72.403 91.881 C 71.788 92.240,71.167 92.793,71.167 92.982 C 71.167 93.084,71.094 93.167,71.006 93.167 C 70.720 93.167,70.447 93.847,70.651 94.051 C 70.783 94.183,70.837 94.166,70.845 93.992 C 70.859 93.715,72.000 92.709,72.000 92.974 C 72.000 93.069,71.925 93.193,71.833 93.250 C 71.463 93.479,71.703 93.640,72.275 93.547 C 72.741 93.471,72.933 93.517,73.097 93.741 C 73.448 94.220,73.667 93.875,73.667 92.843 C 73.667 91.977,73.626 91.861,73.292 91.772 C 72.810 91.643,72.812 91.642,72.403 91.881 M73.241 94.348 C 73.179 94.448,73.213 94.613,73.315 94.715 C 73.451 94.851,73.500 94.803,73.500 94.533 C 73.500 94.131,73.413 94.069,73.241 94.348 " stroke="none" fill="#520ef4" fill-rule="evenodd"></path><path id="path2" d="M43.792 25.784 C 43.998 25.824,44.335 25.824,44.542 25.784 C 44.748 25.745,44.579 25.712,44.167 25.712 C 43.754 25.712,43.585 25.745,43.792 25.784 M387.167 35.616 C 383.405 37.526,384.503 43.167,388.636 43.167 C 393.718 43.167,393.907 35.699,388.833 35.386 C 388.023 35.336,387.603 35.394,387.167 35.616 M327.500 61.833 L 327.500 87.333 330.500 87.333 L 333.500 87.333 333.500 75.417 L 333.500 63.500 343.083 63.500 L 352.667 63.500 352.667 60.833 L 352.667 58.167 343.083 58.167 L 333.500 58.167 333.500 49.917 L 333.500 41.667 344.083 41.667 L 354.667 41.667 354.667 39.000 L 354.667 36.333 341.083 36.333 L 327.500 36.333 327.500 61.833 M69.325 38.954 C 69.279 39.341,69.306 39.594,69.383 39.517 C 69.461 39.439,69.498 39.122,69.466 38.813 C 69.410 38.264,69.406 38.267,69.325 38.954 M61.564 39.574 C 61.513 39.706,61.501 39.949,61.537 40.115 C 61.578 40.303,61.635 40.213,61.689 39.875 C 61.780 39.307,61.721 39.165,61.564 39.574 M109.667 48.845 C 102.350 49.626,97.676 53.699,97.669 59.298 C 97.663 64.131,100.161 66.923,106.250 68.887 C 113.371 71.185,114.858 71.677,115.124 71.825 C 115.285 71.914,115.838 72.178,116.354 72.412 C 120.161 74.140,120.965 78.171,118.037 80.847 C 117.543 81.298,117.058 81.667,116.958 81.667 C 116.858 81.667,116.658 81.767,116.513 81.890 C 114.363 83.714,106.440 83.850,101.637 82.144 C 98.869 81.161,99.092 81.157,98.875 82.195 C 98.773 82.683,98.534 83.791,98.343 84.656 C 98.152 85.521,98.053 86.278,98.123 86.337 C 98.587 86.734,101.156 87.446,104.167 88.013 C 109.081 88.938,116.459 87.987,119.920 85.983 C 127.143 81.800,127.736 72.536,121.054 68.264 C 120.396 67.844,119.817 67.500,119.767 67.500 C 119.717 67.500,119.280 67.315,118.796 67.089 C 117.597 66.529,115.990 65.982,113.417 65.256 C 104.811 62.828,103.438 61.980,103.423 59.083 C 103.396 53.928,112.264 52.032,122.016 55.108 C 122.227 55.175,122.328 54.974,122.501 54.138 C 122.621 53.558,122.847 52.671,123.005 52.167 C 123.587 50.298,123.586 50.274,122.879 50.056 C 119.240 48.934,113.637 48.420,109.667 48.845 M201.583 48.856 C 200.303 49.017,196.849 49.808,196.583 50.000 C 196.492 50.066,196.192 50.174,195.917 50.240 C 194.184 50.651,190.290 52.485,190.428 52.824 C 190.485 52.967,190.645 53.458,190.783 53.917 C 190.921 54.375,191.091 54.825,191.162 54.917 C 191.232 55.008,191.419 55.481,191.577 55.967 C 191.736 56.453,191.915 56.824,191.975 56.791 C 192.034 56.759,192.383 56.598,192.750 56.434 C 193.117 56.269,193.642 56.031,193.917 55.903 C 199.888 53.140,206.898 53.228,209.583 56.100 C 211.176 57.804,211.833 59.860,211.833 63.138 L 211.833 64.956 211.208 65.061 C 210.865 65.119,209.046 65.279,207.167 65.418 C 194.117 66.380,188.518 70.016,188.503 77.535 C 188.479 89.122,203.368 92.356,211.470 82.525 C 212.181 81.662,212.303 81.797,212.322 83.468 C 212.335 84.696,212.635 86.789,212.857 87.208 C 212.995 87.469,213.317 87.500,215.857 87.500 L 218.703 87.500 218.610 87.125 C 217.891 84.220,217.668 80.087,217.667 69.667 C 217.666 62.012,217.614 59.612,217.428 58.500 C 216.191 51.112,210.613 47.717,201.583 48.856 M253.333 48.892 C 250.106 49.671,247.368 51.791,245.141 55.234 L 244.167 56.740 244.167 53.204 L 244.167 49.667 241.250 49.667 L 238.333 49.667 238.333 68.583 L 238.333 87.500 241.247 87.500 L 244.160 87.500 244.205 75.037 L 244.250 62.575 245.576 60.829 C 249.381 55.818,253.539 53.754,257.667 54.826 C 259.410 55.279,260.323 55.564,260.964 55.855 C 261.869 56.267,261.830 56.300,262.579 54.465 C 262.927 53.613,263.433 52.402,263.703 51.773 C 264.248 50.506,264.256 50.529,263.083 50.041 C 260.383 48.918,255.574 48.351,253.333 48.892 M289.187 48.823 C 287.297 49.305,283.000 53.074,283.000 54.250 C 283.000 54.309,282.887 54.470,282.750 54.607 C 282.528 54.829,282.500 54.569,282.500 52.262 L 282.500 49.667 279.750 49.667 L 277.000 49.667 277.000 68.608 L 277.000 87.550 278.526 87.442 C 279.365 87.382,280.677 87.333,281.442 87.333 L 282.833 87.333 282.833 73.743 C 282.833 58.634,282.738 59.996,283.918 58.218 C 284.150 57.869,284.432 57.442,284.545 57.268 C 287.276 53.077,289.660 52.634,290.911 56.085 C 291.626 58.057,291.667 58.984,291.667 73.512 L 291.667 87.333 294.583 87.333 L 297.500 87.333 297.500 73.717 L 297.500 60.101 298.603 58.342 C 302.182 52.632,304.639 52.224,305.957 57.123 L 306.395 58.750 306.457 73.042 L 306.519 87.333 309.435 87.333 L 312.351 87.333 312.288 72.208 L 312.224 57.083 311.791 55.216 C 310.723 50.614,308.880 48.746,305.417 48.754 C 302.580 48.761,300.270 50.353,297.934 53.912 L 297.285 54.901 296.839 53.742 C 295.393 49.987,292.334 48.021,289.187 48.823 M139.170 49.875 C 139.172 49.990,139.250 50.571,139.344 51.167 C 139.437 51.762,139.700 53.563,139.928 55.167 C 140.156 56.771,140.529 59.396,140.758 61.000 C 140.986 62.604,141.357 65.229,141.581 66.833 C 141.805 68.438,142.181 71.100,142.417 72.750 C 143.416 79.752,143.691 81.721,144.009 84.167 C 144.194 85.587,144.381 86.919,144.426 87.125 C 144.504 87.491,144.559 87.500,146.737 87.500 L 148.967 87.500 149.138 87.042 C 149.232 86.790,149.735 85.571,150.256 84.333 C 150.776 83.096,151.373 81.671,151.581 81.167 C 151.790 80.662,152.352 79.313,152.832 78.167 C 153.311 77.021,153.848 75.708,154.024 75.250 C 154.201 74.792,154.453 74.192,154.585 73.917 C 154.829 73.407,156.173 70.185,157.176 67.708 C 157.784 66.206,157.814 66.198,158.263 67.417 C 158.432 67.875,158.667 68.438,158.784 68.667 C 158.902 68.896,158.998 69.137,158.999 69.203 C 159.000 69.269,159.188 69.733,159.417 70.234 C 159.646 70.735,159.833 71.201,159.833 71.270 C 159.833 71.339,159.977 71.700,160.153 72.072 C 160.329 72.445,160.750 73.425,161.088 74.250 C 161.711 75.769,162.559 77.828,163.249 79.500 C 163.457 80.004,164.019 81.354,164.498 82.500 C 164.977 83.646,165.516 84.958,165.696 85.417 C 165.875 85.875,166.144 86.531,166.293 86.875 L 166.564 87.500 168.751 87.500 L 170.939 87.500 171.139 86.458 C 171.250 85.885,171.488 84.329,171.670 83.000 C 171.851 81.671,172.185 79.308,172.411 77.750 C 173.265 71.860,173.749 68.511,174.918 60.417 C 175.143 58.858,175.513 56.271,175.741 54.667 C 175.969 53.063,176.232 51.300,176.327 50.750 C 176.421 50.200,176.499 49.731,176.499 49.708 C 176.500 49.685,175.164 49.667,173.530 49.667 L 170.560 49.667 170.361 50.958 C 170.252 51.669,170.007 53.750,169.817 55.583 C 168.868 64.743,167.538 76.518,167.442 76.614 C 167.415 76.641,167.218 76.232,167.004 75.706 C 166.790 75.180,166.481 74.450,166.319 74.083 C 166.156 73.717,165.748 72.742,165.412 71.917 C 165.077 71.092,164.659 70.102,164.484 69.717 C 164.310 69.333,164.167 68.979,164.167 68.930 C 164.167 68.881,163.953 68.371,163.691 67.796 C 163.430 67.221,163.010 66.225,162.758 65.583 C 162.505 64.942,162.197 64.192,162.072 63.917 C 161.947 63.642,161.623 62.892,161.352 62.250 L 160.860 61.083 157.805 61.038 L 154.750 60.993 154.550 61.455 C 154.440 61.709,154.271 62.127,154.175 62.385 C 154.079 62.642,153.813 63.263,153.584 63.765 C 153.354 64.266,153.167 64.716,153.167 64.764 C 153.167 64.812,153.025 65.166,152.853 65.551 C 152.108 67.211,151.500 68.647,151.500 68.747 C 151.500 68.806,151.325 69.243,151.111 69.719 C 150.726 70.575,150.512 71.075,149.488 73.500 C 149.198 74.188,148.825 75.053,148.659 75.422 C 148.493 75.792,148.299 76.317,148.227 76.589 C 148.067 77.194,148.034 76.985,147.422 71.500 C 147.192 69.438,146.818 66.137,146.592 64.167 C 145.713 56.497,145.317 53.017,145.138 51.375 L 144.951 49.667 142.059 49.667 C 139.854 49.667,139.167 49.716,139.170 49.875 M374.667 52.167 L 374.667 54.667 380.167 54.667 L 385.667 54.667 385.667 71.000 L 385.667 87.333 388.583 87.333 L 391.500 87.333 391.500 68.500 L 391.500 49.667 383.083 49.667 L 374.667 49.667 374.667 52.167 M80.042 68.583 C 80.044 68.950,80.078 69.080,80.118 68.873 C 80.158 68.666,80.156 68.366,80.115 68.206 C 80.073 68.047,80.040 68.217,80.042 68.583 M211.833 72.858 L 211.833 76.216 211.213 76.983 C 205.168 84.461,194.735 84.577,194.754 77.167 C 194.762 74.216,196.321 72.401,199.914 71.160 C 201.720 70.536,208.135 69.590,211.042 69.519 L 211.833 69.500 211.833 72.858 M39.317 86.384 C 39.391 86.458,39.894 86.494,40.434 86.465 L 41.417 86.412 40.299 86.331 C 39.685 86.287,39.243 86.310,39.317 86.384 " stroke="none" fill="#040404" fill-rule="evenodd"></path><path id="path3" d="M48.500 7.657 C 48.500 7.835,48.556 8.015,48.625 8.058 C 48.694 8.100,48.750 7.954,48.750 7.734 C 48.750 7.514,48.694 7.333,48.625 7.333 C 48.556 7.333,48.500 7.479,48.500 7.657 M49.417 7.450 C 49.733 7.742,50.623 8.062,50.333 7.780 C 50.196 7.646,49.896 7.482,49.667 7.416 C 49.409 7.342,49.314 7.355,49.417 7.450 M51.333 8.402 C 51.333 8.450,51.727 8.742,52.208 9.050 C 52.690 9.358,53.327 9.888,53.625 10.227 C 53.923 10.567,54.167 10.775,54.167 10.689 C 54.167 10.478,52.509 8.990,51.857 8.616 C 51.569 8.450,51.333 8.354,51.333 8.402 M49.425 8.804 C 49.852 9.175,51.333 10.184,51.333 10.103 C 51.333 9.983,49.553 8.667,49.390 8.667 C 49.322 8.667,49.338 8.729,49.425 8.804 M51.750 10.421 C 52.256 10.831,52.731 11.072,52.593 10.849 C 52.530 10.747,52.240 10.549,51.948 10.407 C 51.455 10.169,51.441 10.170,51.750 10.421 M27.544 11.120 C 27.797 11.158,28.172 11.157,28.377 11.117 C 28.582 11.078,28.375 11.046,27.917 11.048 C 27.458 11.049,27.291 11.081,27.544 11.120 M30.411 11.491 C 30.471 11.588,30.610 11.667,30.720 11.667 C 30.831 11.667,31.314 11.931,31.794 12.254 C 32.787 12.923,32.956 12.927,32.083 12.261 C 31.435 11.767,30.242 11.218,30.411 11.491 M25.843 12.023 C 25.302 12.911,25.596 14.794,26.348 15.259 C 26.467 15.332,26.384 15.102,26.165 14.747 C 25.647 13.910,25.599 12.536,26.068 12.017 C 26.244 11.823,26.341 11.619,26.286 11.564 C 26.230 11.508,26.031 11.715,25.843 12.023 M45.417 12.333 C 45.137 12.453,45.171 12.478,45.625 12.488 C 45.923 12.495,46.167 12.425,46.167 12.333 C 46.167 12.135,45.877 12.135,45.417 12.333 M44.275 12.974 C 44.003 13.258,43.784 13.709,43.730 14.099 C 43.662 14.588,43.683 14.688,43.817 14.500 C 43.915 14.362,43.996 14.087,43.997 13.888 C 43.999 13.689,44.194 13.295,44.431 13.013 C 44.973 12.369,44.877 12.345,44.275 12.974 M48.833 13.558 C 48.833 13.596,49.115 13.837,49.458 14.094 C 49.970 14.477,50.023 14.493,49.752 14.182 C 49.436 13.820,48.833 13.411,48.833 13.558 M33.579 13.833 C 33.657 13.971,33.851 14.272,34.010 14.502 C 34.169 14.732,34.395 15.257,34.511 15.668 C 34.632 16.093,34.752 16.295,34.789 16.136 C 34.868 15.791,34.096 14.118,33.714 13.809 C 33.476 13.615,33.456 13.619,33.579 13.833 M51.000 15.583 C 51.498 16.087,51.931 16.500,51.962 16.500 C 51.994 16.500,51.663 16.087,51.228 15.583 C 50.793 15.079,50.360 14.667,50.266 14.667 C 50.172 14.667,50.502 15.079,51.000 15.583 M43.679 15.083 C 43.652 15.937,44.534 18.133,45.211 18.901 C 45.373 19.085,45.208 18.661,44.845 17.960 C 44.482 17.258,44.139 16.399,44.082 16.050 C 44.025 15.702,43.913 15.267,43.834 15.083 L 43.689 14.750 43.679 15.083 M27.250 16.287 C 28.073 17.106,29.531 18.057,29.021 17.442 C 28.895 17.291,28.695 17.167,28.577 17.167 C 28.458 17.167,28.336 17.110,28.306 17.042 C 28.275 16.973,27.837 16.588,27.333 16.187 L 26.417 15.458 27.250 16.287 M60.167 15.674 C 59.981 15.800,60.036 15.816,60.377 15.736 C 60.651 15.673,60.938 15.713,61.085 15.835 C 61.229 15.954,61.333 15.970,61.333 15.872 C 61.333 15.526,60.575 15.398,60.167 15.674 M61.500 16.064 C 61.500 16.099,61.706 16.261,61.958 16.423 L 62.417 16.718 62.099 16.359 C 61.818 16.041,61.500 15.885,61.500 16.064 M34.477 17.164 C 34.114 18.014,33.602 18.316,32.460 18.353 C 31.903 18.372,31.553 18.450,31.611 18.545 C 32.007 19.185,34.366 18.150,34.683 17.197 C 34.941 16.422,34.804 16.399,34.477 17.164 M52.661 17.679 C 53.021 18.235,53.405 18.966,53.515 19.304 C 53.624 19.641,53.825 20.067,53.961 20.250 C 54.568 21.070,53.515 18.692,52.798 17.625 C 51.941 16.349,51.830 16.393,52.661 17.679 M60.000 16.793 C 60.000 16.884,60.112 17.053,60.250 17.167 C 60.389 17.282,60.500 17.300,60.500 17.207 C 60.500 17.116,60.387 16.947,60.250 16.833 C 60.111 16.718,60.000 16.700,60.000 16.793 M62.651 16.971 C 62.752 17.160,62.917 17.365,63.018 17.427 C 63.148 17.508,63.148 17.443,63.016 17.196 C 62.914 17.007,62.749 16.801,62.649 16.739 C 62.518 16.658,62.519 16.724,62.651 16.971 M60.663 17.811 C 60.933 18.335,62.148 19.918,62.919 20.750 L 63.537 21.417 62.962 20.667 C 62.646 20.254,62.025 19.429,61.582 18.833 C 60.619 17.537,60.390 17.282,60.663 17.811 M29.891 18.019 C 30.243 18.205,30.570 18.319,30.617 18.272 C 30.698 18.190,29.575 17.659,29.355 17.674 C 29.297 17.678,29.538 17.834,29.891 18.019 M64.360 18.833 C 64.774 19.337,65.432 20.219,65.821 20.792 C 66.211 21.365,66.565 21.833,66.608 21.833 C 66.827 21.833,65.040 19.342,64.277 18.583 L 63.606 17.917 64.360 18.833 M45.809 19.792 C 45.991 20.044,46.572 20.662,47.099 21.167 C 47.975 22.005,47.952 21.965,46.830 20.708 C 45.568 19.294,45.228 18.989,45.809 19.792 M56.759 20.324 C 56.598 20.502,56.492 20.725,56.525 20.820 C 56.557 20.915,56.711 20.769,56.867 20.496 C 57.197 19.919,57.168 19.872,56.759 20.324 M58.989 21.105 C 59.461 21.530,60.189 22.355,60.605 22.939 C 61.422 24.083,61.703 24.325,61.218 23.467 C 60.860 22.834,58.526 20.333,58.293 20.333 C 58.204 20.333,58.517 20.681,58.989 21.105 M54.195 21.833 C 54.200 22.710,54.208 22.726,54.375 22.206 C 54.498 21.824,54.496 21.553,54.369 21.290 C 54.217 20.975,54.190 21.060,54.195 21.833 M56.530 21.583 C 56.511 22.193,56.844 23.462,57.141 23.917 L 57.359 24.250 57.247 23.917 C 57.083 23.425,56.708 21.979,56.621 21.500 C 56.553 21.127,56.544 21.136,56.530 21.583 M63.757 21.824 C 64.073 22.295,65.167 23.503,65.161 23.375 C 65.158 23.306,64.802 22.871,64.370 22.408 C 63.937 21.944,63.662 21.682,63.757 21.824 M48.170 22.127 C 48.174 22.271,49.496 23.231,49.569 23.143 C 49.596 23.110,49.291 22.841,48.892 22.544 C 48.493 22.247,48.168 22.060,48.170 22.127 M66.678 22.047 C 66.672 22.119,66.779 22.447,66.917 22.776 C 67.471 24.103,67.036 24.619,65.957 23.913 C 65.417 23.560,65.322 23.531,65.554 23.793 C 66.137 24.452,66.836 24.617,67.190 24.180 C 67.480 23.821,67.474 23.070,67.178 22.833 C 67.121 22.787,66.988 22.563,66.882 22.333 C 66.776 22.104,66.684 21.975,66.678 22.047 M53.696 23.355 C 53.423 23.692,53.387 23.802,53.576 23.730 C 53.830 23.632,54.255 23.024,54.139 22.924 C 54.108 22.898,53.909 23.092,53.696 23.355 M51.095 23.853 C 51.217 24.048,52.473 24.166,52.861 24.019 C 53.165 23.904,53.008 23.858,52.140 23.811 C 51.530 23.777,51.060 23.796,51.095 23.853 M57.333 24.397 C 57.333 24.576,57.829 25.500,57.925 25.500 C 57.971 25.500,57.885 25.256,57.733 24.958 C 57.424 24.350,57.333 24.223,57.333 24.397 M62.116 25.415 C 62.268 25.734,62.423 25.966,62.459 25.930 C 62.535 25.854,62.029 24.833,61.915 24.833 C 61.873 24.833,61.963 25.095,62.116 25.415 M58.000 25.805 C 58.000 26.337,60.160 29.128,60.874 29.519 C 61.034 29.606,60.734 29.239,60.208 28.702 C 59.681 28.166,58.969 27.246,58.625 26.659 C 58.281 26.071,58.000 25.687,58.000 25.805 M42.790 26.181 C 42.009 26.636,41.530 28.414,41.919 29.417 L 42.178 30.083 42.077 29.278 C 41.928 28.097,42.130 27.220,42.701 26.570 C 43.236 25.960,43.247 25.915,42.790 26.181 M62.702 26.778 C 63.262 28.850,62.910 29.990,61.780 29.764 C 61.293 29.667,61.281 29.676,61.589 29.908 C 62.690 30.741,63.584 28.797,62.945 26.961 C 62.650 26.114,62.489 25.993,62.702 26.778 M46.639 26.840 C 48.064 27.709,49.853 30.022,50.525 31.865 C 50.948 33.025,51.154 33.043,50.763 31.886 C 50.173 30.137,47.150 26.498,46.290 26.501 C 46.176 26.501,46.333 26.654,46.639 26.840 M24.250 28.452 C 24.067 28.496,23.848 28.597,23.764 28.677 C 23.680 28.757,23.905 28.741,24.263 28.642 C 24.882 28.471,26.935 28.527,27.833 28.739 C 28.187 28.822,28.175 28.800,27.750 28.593 C 27.266 28.356,25.023 28.266,24.250 28.452 M22.459 29.044 C 22.116 29.235,21.859 29.415,21.889 29.444 C 21.959 29.514,23.333 28.850,23.333 28.746 C 23.333 28.607,23.101 28.686,22.459 29.044 M69.095 28.929 C 68.951 29.073,68.836 29.279,68.838 29.387 C 68.841 29.495,68.920 29.452,69.013 29.292 C 69.479 28.492,70.469 29.407,71.560 31.645 C 72.733 34.054,73.348 36.599,72.833 36.917 C 72.742 36.973,72.669 37.109,72.672 37.218 C 72.675 37.327,72.787 37.271,72.922 37.093 C 74.100 35.536,70.394 27.630,69.095 28.929 M21.164 29.974 C 20.545 30.662,20.187 31.310,20.090 31.922 C 19.992 32.529,20.010 32.511,20.303 31.697 C 20.479 31.210,20.873 30.553,21.178 30.239 C 21.483 29.924,21.661 29.673,21.574 29.681 C 21.488 29.688,21.303 29.820,21.164 29.974 M31.751 29.834 C 31.800 29.914,32.065 30.091,32.339 30.228 C 32.614 30.365,32.799 30.412,32.749 30.333 C 32.700 30.253,32.435 30.076,32.161 29.939 C 31.886 29.802,31.701 29.755,31.751 29.834 M42.242 30.510 C 42.364 31.145,42.801 32.127,43.023 32.264 C 43.130 32.331,43.179 32.317,43.131 32.234 C 43.083 32.151,42.932 31.821,42.795 31.500 C 42.658 31.179,42.459 30.729,42.353 30.500 L 42.160 30.083 42.242 30.510 M68.842 31.036 C 68.833 31.317,69.211 32.596,69.495 33.250 C 70.568 35.717,71.569 37.333,72.023 37.333 C 72.108 37.333,71.932 37.083,71.631 36.778 C 70.946 36.083,70.094 34.391,69.391 32.333 C 69.094 31.462,68.847 30.879,68.842 31.036 M34.521 31.608 C 34.532 31.686,35.112 32.275,35.810 32.917 C 36.940 33.955,37.048 33.949,36.083 32.901 C 35.552 32.325,34.498 31.452,34.521 31.608 M65.240 32.617 C 64.848 33.009,64.996 35.306,65.480 36.333 L 65.676 36.750 65.577 36.333 C 65.012 33.950,65.112 32.596,65.866 32.452 C 66.236 32.381,66.237 32.378,65.887 32.356 C 65.687 32.344,65.396 32.461,65.240 32.617 M43.435 32.969 C 43.608 33.273,44.222 34.023,44.799 34.636 C 45.376 35.249,45.724 35.544,45.572 35.292 C 45.420 35.040,45.233 34.833,45.157 34.833 C 45.081 34.833,44.665 34.365,44.233 33.792 C 43.245 32.484,43.033 32.265,43.435 32.969 M56.749 33.167 C 55.465 34.587,57.172 39.844,59.396 41.315 C 59.591 41.444,59.403 41.182,58.979 40.733 C 56.568 38.178,55.614 33.531,57.395 33.015 C 57.889 32.871,57.893 32.863,57.484 32.848 C 57.246 32.840,56.916 32.984,56.749 33.167 M58.000 32.972 C 58.000 33.039,58.219 33.224,58.487 33.383 C 59.367 33.902,60.702 36.059,61.062 37.542 C 61.123 37.794,61.238 38.000,61.317 38.000 C 61.686 38.000,60.469 35.354,59.580 34.222 C 58.971 33.448,58.000 32.679,58.000 32.972 M20.012 33.261 C 19.994 33.775,20.452 35.208,20.754 35.586 C 21.014 35.911,21.015 35.910,20.847 35.562 C 20.753 35.367,20.530 34.692,20.350 34.062 C 20.171 33.432,20.018 33.072,20.012 33.261 M51.014 34.319 C 51.006 34.999,51.038 35.518,51.085 35.471 C 51.266 35.289,51.331 34.057,51.184 33.583 C 51.055 33.169,51.026 33.296,51.014 34.319 M67.192 33.601 C 67.627 34.101,68.262 35.338,68.577 36.302 C 68.737 36.790,68.903 37.153,68.946 37.110 C 69.193 36.862,67.573 33.493,67.140 33.356 C 66.987 33.307,67.003 33.384,67.192 33.601 M37.700 35.441 C 38.048 36.135,38.333 36.848,38.333 37.027 C 38.333 37.206,38.405 37.308,38.494 37.254 C 38.596 37.191,38.596 37.003,38.494 36.735 C 38.195 35.948,37.443 34.494,37.255 34.337 C 37.151 34.251,37.352 34.748,37.700 35.441 M46.001 35.802 C 46.002 35.865,46.171 36.001,46.376 36.105 C 46.582 36.208,47.076 36.457,47.474 36.658 C 47.873 36.859,48.227 36.995,48.261 36.961 C 48.295 36.927,47.801 36.626,47.162 36.294 C 46.523 35.961,46.001 35.740,46.001 35.802 M50.260 36.358 C 49.899 36.711,49.687 37.000,49.789 37.000 C 50.012 37.000,51.000 36.038,51.000 35.821 C 51.000 35.626,51.035 35.600,50.260 36.358 M75.103 36.587 C 74.955 36.736,74.833 36.927,74.833 37.012 C 74.833 37.097,74.990 37.010,75.181 36.819 C 75.372 36.628,75.493 36.437,75.450 36.395 C 75.408 36.352,75.252 36.439,75.103 36.587 M21.333 36.638 C 21.333 36.713,21.534 36.957,21.780 37.179 L 22.226 37.583 21.852 37.042 C 21.474 36.495,21.333 36.385,21.333 36.638 M76.252 37.792 C 76.605 38.456,76.967 39.000,77.056 39.000 C 77.145 39.000,77.108 38.869,76.974 38.708 C 76.839 38.548,76.591 38.097,76.422 37.707 C 76.253 37.317,76.002 36.905,75.863 36.791 C 75.724 36.677,75.899 37.127,76.252 37.792 M65.667 37.042 C 65.669 37.799,67.155 40.024,67.909 40.398 C 68.425 40.654,69.000 40.511,69.000 40.127 C 69.000 39.983,68.949 39.984,68.800 40.133 C 68.188 40.745,67.161 39.912,66.327 38.125 C 65.888 37.184,65.666 36.820,65.667 37.042 M74.918 37.667 C 75.117 38.344,75.372 38.665,75.249 38.083 C 75.191 37.808,75.065 37.508,74.969 37.417 C 74.850 37.302,74.834 37.380,74.918 37.667 M69.045 38.628 C 69.053 39.312,69.118 39.748,69.194 39.628 C 69.361 39.365,69.345 38.389,69.165 37.833 C 69.072 37.547,69.035 37.796,69.045 38.628 M22.583 38.167 C 22.847 38.442,23.129 38.667,23.211 38.667 C 23.292 38.667,23.134 38.442,22.859 38.167 C 22.584 37.892,22.302 37.667,22.232 37.667 C 22.162 37.667,22.320 37.892,22.583 38.167 M75.338 38.833 C 75.338 38.971,75.411 39.196,75.500 39.333 C 75.644 39.556,75.662 39.556,75.662 39.333 C 75.662 39.196,75.589 38.971,75.500 38.833 C 75.356 38.611,75.338 38.611,75.338 38.833 M23.732 39.139 C 24.027 39.472,25.167 40.230,25.167 40.093 C 25.167 40.059,24.773 39.751,24.292 39.408 C 23.810 39.065,23.558 38.944,23.732 39.139 M38.121 40.125 C 37.902 40.565,37.411 41.158,37.017 41.458 C 36.627 41.756,36.402 42.000,36.518 42.000 C 36.844 42.000,38.227 40.471,38.444 39.871 C 38.724 39.095,38.577 39.210,38.121 40.125 M75.667 39.730 C 75.667 39.924,76.199 41.024,76.262 40.960 C 76.349 40.873,75.870 39.667,75.748 39.667 C 75.703 39.667,75.667 39.695,75.667 39.730 M61.333 40.256 C 61.333 40.488,61.212 40.882,61.064 41.131 L 60.794 41.583 61.143 41.167 C 61.448 40.803,61.647 39.833,61.417 39.833 C 61.371 39.833,61.333 40.023,61.333 40.256 M26.407 40.922 C 26.585 41.057,26.805 41.167,26.897 41.167 C 26.989 41.167,26.918 41.057,26.740 40.922 C 26.562 40.787,26.342 40.677,26.250 40.677 C 26.158 40.677,26.229 40.787,26.407 40.922 M77.762 41.333 C 77.926 41.946,78.303 42.833,78.401 42.833 C 78.508 42.833,78.072 41.587,77.831 41.204 C 77.683 40.967,77.670 40.990,77.762 41.333 M27.571 41.480 C 27.621 41.560,27.831 41.669,28.039 41.722 C 28.403 41.813,28.405 41.808,28.093 41.575 C 27.735 41.307,27.430 41.252,27.571 41.480 M28.833 42.000 C 28.971 42.089,29.233 42.157,29.417 42.152 L 29.750 42.143 29.417 42.000 C 28.918 41.786,28.502 41.786,28.833 42.000 M76.667 42.062 C 76.667 42.200,77.536 43.669,77.664 43.748 C 77.739 43.795,77.578 43.421,77.305 42.917 C 76.872 42.117,76.667 41.843,76.667 42.062 M30.245 42.410 C 30.860 42.752,33.669 42.944,34.500 42.702 C 35.005 42.555,34.917 42.537,33.849 42.575 C 32.622 42.618,30.962 42.472,30.167 42.251 C 29.803 42.151,29.813 42.171,30.245 42.410 M48.137 42.782 C 47.892 42.821,47.592 42.973,47.471 43.121 C 47.274 43.359,47.289 43.367,47.614 43.194 C 48.068 42.952,49.732 42.940,50.219 43.176 C 50.571 43.346,50.572 43.343,50.260 43.093 C 50.082 42.950,49.782 42.832,49.593 42.831 C 49.404 42.830,49.100 42.802,48.917 42.769 C 48.733 42.737,48.383 42.742,48.137 42.782 M46.720 43.772 C 45.914 45.002,46.752 47.340,48.502 48.750 C 48.730 48.933,48.567 48.700,48.140 48.232 C 46.689 46.640,46.195 44.868,46.903 43.792 C 47.069 43.540,47.161 43.333,47.106 43.333 C 47.052 43.333,46.878 43.531,46.720 43.772 M52.285 44.439 C 52.854 44.976,53.510 45.708,53.743 46.065 C 54.174 46.724,54.320 46.764,53.980 46.129 C 53.702 45.610,52.864 44.728,52.008 44.056 C 51.441 43.610,51.510 43.706,52.285 44.439 M75.000 43.957 C 75.000 44.050,75.112 44.219,75.250 44.333 C 75.387 44.447,75.500 44.677,75.500 44.844 C 75.500 45.011,75.568 45.189,75.651 45.240 C 75.894 45.390,75.642 44.620,75.307 44.186 C 75.138 43.967,75.000 43.864,75.000 43.957 M72.872 46.000 C 72.872 46.321,72.906 46.452,72.948 46.292 C 72.990 46.131,72.990 45.869,72.948 45.708 C 72.906 45.548,72.872 45.679,72.872 46.000 M76.041 47.632 C 76.064 48.378,76.132 48.859,76.191 48.702 C 76.307 48.393,76.219 46.497,76.082 46.360 C 76.036 46.314,76.018 46.886,76.041 47.632 M72.875 47.417 C 72.877 47.783,72.911 47.914,72.951 47.706 C 72.991 47.499,72.990 47.199,72.948 47.040 C 72.906 46.880,72.874 47.050,72.875 47.417 M5.723 48.544 C 5.679 48.615,5.574 48.629,5.488 48.576 C 5.403 48.523,5.333 48.543,5.333 48.620 C 5.333 48.698,4.977 48.864,4.542 48.990 C -0.794 50.536,0.185 56.387,5.922 57.236 L 6.583 57.334 6.083 57.091 C 5.808 56.958,5.444 56.845,5.274 56.841 C 4.682 56.826,2.879 55.836,2.234 55.171 C -0.473 52.382,2.772 48.652,7.940 48.611 C 8.707 48.605,9.333 48.533,9.333 48.452 C 9.333 48.272,5.837 48.362,5.723 48.544 M9.740 48.517 C 9.562 48.586,9.492 48.650,9.583 48.659 C 9.675 48.668,10.031 48.740,10.375 48.820 C 11.121 48.993,11.164 48.939,10.531 48.624 C 10.254 48.486,9.931 48.442,9.740 48.517 M11.407 49.075 C 11.585 49.217,11.859 49.333,12.017 49.333 C 12.423 49.333,13.916 50.553,14.504 51.365 C 15.351 52.534,15.143 54.145,13.996 55.296 C 13.697 55.596,13.491 55.880,13.539 55.928 C 13.742 56.131,14.972 54.455,15.155 53.726 C 15.631 51.836,13.917 49.587,11.500 48.929 C 11.100 48.821,11.096 48.826,11.407 49.075 M36.960 49.118 C 37.168 49.158,37.468 49.156,37.627 49.115 C 37.786 49.073,37.617 49.040,37.250 49.042 C 36.883 49.044,36.753 49.078,36.960 49.118 M39.000 49.157 C 39.000 49.310,39.828 49.561,39.945 49.444 C 39.985 49.404,39.788 49.292,39.509 49.195 C 39.229 49.097,39.000 49.080,39.000 49.157 M34.833 49.333 C 34.611 49.477,34.611 49.495,34.833 49.495 C 34.971 49.495,35.196 49.422,35.333 49.333 C 35.556 49.190,35.556 49.172,35.333 49.172 C 35.196 49.172,34.971 49.244,34.833 49.333 M53.654 49.605 C 53.269 50.024,53.267 50.033,53.622 49.817 C 53.826 49.692,54.030 49.495,54.075 49.379 C 54.194 49.068,54.105 49.116,53.654 49.605 M40.500 49.571 C 40.500 49.620,40.882 49.855,41.348 50.091 C 44.853 51.867,45.222 55.256,42.136 57.332 C 41.557 57.722,41.271 57.984,41.500 57.915 C 44.285 57.073,45.267 53.565,43.316 51.430 C 42.646 50.696,40.500 49.280,40.500 49.571 M80.000 50.368 C 80.000 50.510,80.125 50.729,80.277 50.855 C 80.531 51.064,80.536 51.048,80.338 50.667 C 80.048 50.108,80.000 50.066,80.000 50.368 M12.667 56.333 C 12.346 56.509,12.196 56.654,12.333 56.656 C 12.471 56.658,12.771 56.513,13.000 56.333 C 13.524 55.924,13.415 55.924,12.667 56.333 M11.500 56.833 C 11.298 56.964,11.322 56.995,11.625 56.997 C 11.831 56.999,12.000 56.925,12.000 56.833 C 12.000 56.625,11.823 56.625,11.500 56.833 M10.083 57.167 C 9.797 57.290,9.821 57.311,10.250 57.319 C 10.525 57.324,10.862 57.256,11.000 57.167 C 11.326 56.956,10.574 56.956,10.083 57.167 M6.992 57.407 C 7.434 57.650,9.091 57.643,9.333 57.398 C 9.418 57.312,8.871 57.236,8.031 57.216 C 6.737 57.186,6.627 57.206,6.992 57.407 M48.458 61.095 C 47.835 61.433,47.873 61.574,48.500 61.250 C 48.775 61.108,49.000 60.956,49.000 60.912 C 49.000 60.805,48.982 60.811,48.458 61.095 M46.109 63.138 C 45.805 63.474,45.738 63.745,45.999 63.584 C 46.173 63.476,46.558 62.833,46.448 62.833 C 46.414 62.833,46.261 62.970,46.109 63.138 M45.583 64.167 C 45.521 64.364,45.507 64.563,45.553 64.608 C 45.599 64.654,45.687 64.530,45.750 64.333 C 45.813 64.136,45.826 63.937,45.780 63.892 C 45.735 63.846,45.646 63.970,45.583 64.167 M80.687 64.083 C 80.673 64.267,80.624 64.604,80.576 64.833 L 80.491 65.250 80.669 64.841 C 80.767 64.616,80.817 64.279,80.780 64.091 C 80.714 63.759,80.711 63.759,80.687 64.083 M26.203 65.657 C 25.626 65.821,25.101 66.015,25.036 66.088 C 24.970 66.160,25.067 66.164,25.250 66.096 C 26.724 65.548,29.281 65.405,31.500 65.747 C 32.007 65.825,31.985 65.804,31.333 65.587 C 30.277 65.237,27.543 65.273,26.203 65.657 M52.833 65.917 C 52.618 66.146,52.511 66.331,52.596 66.328 C 52.738 66.323,53.425 65.500,53.287 65.500 C 53.253 65.500,53.049 65.688,52.833 65.917 M81.685 65.500 C 81.661 65.546,81.615 66.221,81.582 67.000 C 81.530 68.219,81.543 68.312,81.680 67.667 C 81.814 67.038,81.817 65.238,81.685 65.500 M32.500 66.027 C 32.729 66.129,33.179 66.324,33.500 66.461 C 33.821 66.599,34.151 66.750,34.234 66.798 C 34.317 66.846,34.331 66.797,34.264 66.690 C 34.124 66.464,33.303 66.101,32.583 65.948 C 32.103 65.846,32.100 65.850,32.500 66.027 M45.505 65.891 C 45.489 66.321,47.105 67.833,47.580 67.833 C 47.851 67.833,47.603 67.520,47.265 67.435 C 46.884 67.340,46.309 66.824,45.758 66.083 C 45.622 65.900,45.508 65.813,45.505 65.891 M24.240 66.245 C 24.062 66.379,23.996 66.492,24.093 66.495 C 24.190 66.498,24.415 66.390,24.593 66.255 C 24.771 66.121,24.837 66.008,24.740 66.005 C 24.643 66.002,24.418 66.110,24.240 66.245 M80.275 67.375 C 80.217 67.856,80.175 68.512,80.182 68.833 C 80.204 69.813,80.443 68.775,80.479 67.542 C 80.517 66.272,80.417 66.190,80.275 67.375 M34.783 67.250 C 35.263 67.586,35.856 68.563,36.197 69.580 C 36.368 70.088,36.482 70.269,36.489 70.040 C 36.513 69.213,35.136 67.000,34.597 67.000 C 34.503 67.000,34.586 67.112,34.783 67.250 M21.083 67.805 C 19.390 68.880,16.558 71.781,16.884 72.107 C 16.934 72.157,17.099 71.958,17.250 71.666 C 17.672 70.850,19.786 68.810,21.042 68.007 C 22.012 67.386,22.302 67.162,22.125 67.168 C 22.102 67.169,21.633 67.456,21.083 67.805 M81.277 70.625 C 81.033 71.526,80.987 71.906,81.142 71.750 C 81.325 71.565,81.590 70.333,81.446 70.333 C 81.397 70.333,81.320 70.465,81.277 70.625 M36.331 71.282 C 36.330 71.448,36.214 71.912,36.074 72.313 C 35.935 72.714,35.852 73.074,35.891 73.113 C 35.930 73.152,36.052 72.936,36.162 72.634 C 36.567 71.525,36.641 71.170,36.488 71.076 C 36.403 71.023,36.332 71.116,36.331 71.282 M80.898 72.406 C 80.829 72.585,80.671 72.663,80.477 72.612 C 80.306 72.568,80.167 72.599,80.167 72.682 C 80.167 72.765,80.307 72.833,80.480 72.833 C 80.820 72.833,81.278 72.389,81.111 72.222 C 81.054 72.165,80.958 72.248,80.898 72.406 M16.439 72.849 C 16.049 73.803,15.948 74.218,16.136 74.102 C 16.230 74.044,16.360 73.753,16.423 73.456 C 16.487 73.160,16.616 72.821,16.710 72.704 C 16.804 72.588,16.834 72.445,16.776 72.387 C 16.718 72.329,16.567 72.537,16.439 72.849 M69.807 73.125 C 69.285 73.692,68.833 74.357,68.833 74.560 C 68.833 74.644,69.026 74.421,69.261 74.065 C 69.497 73.708,69.891 73.248,70.136 73.042 C 70.382 72.837,70.504 72.668,70.406 72.667 C 70.309 72.667,70.039 72.873,69.807 73.125 M71.622 73.332 C 71.862 73.698,72.093 73.963,72.135 73.920 C 72.211 73.844,71.381 72.667,71.251 72.667 C 71.216 72.667,71.382 72.966,71.622 73.332 M35.360 73.910 C 35.168 74.234,35.041 74.500,35.078 74.500 C 35.208 74.500,35.868 73.479,35.789 73.400 C 35.744 73.355,35.551 73.585,35.360 73.910 M57.486 73.980 C 57.000 74.476,56.948 74.756,57.427 74.297 C 57.687 74.047,57.865 73.813,57.824 73.777 C 57.784 73.740,57.631 73.831,57.486 73.980 M72.034 75.486 C 72.016 76.345,72.066 76.812,72.169 76.748 C 72.358 76.632,72.371 74.905,72.187 74.436 C 72.115 74.254,72.051 74.696,72.034 75.486 M34.238 75.426 C 33.387 76.412,33.362 76.447,33.715 76.177 C 34.029 75.936,35.076 74.667,34.960 74.667 C 34.923 74.667,34.598 75.008,34.238 75.426 M61.338 75.092 C 61.343 75.523,61.366 75.545,61.522 75.276 C 61.651 75.055,61.649 74.916,61.517 74.784 C 61.383 74.650,61.335 74.733,61.338 75.092 M44.968 75.149 C 44.354 75.317,43.604 75.622,43.301 75.827 C 42.691 76.238,42.793 76.213,44.250 75.597 C 50.544 72.937,51.611 79.834,45.592 84.269 C 45.046 84.671,44.664 85.000,44.743 85.000 C 44.979 85.000,46.703 83.648,47.390 82.924 C 51.595 78.498,50.111 73.736,44.968 75.149 M56.713 75.042 C 56.387 75.463,56.276 75.722,56.473 75.600 C 56.671 75.478,57.066 74.833,56.943 74.833 C 56.905 74.833,56.802 74.927,56.713 75.042 M68.439 75.349 C 68.009 76.398,67.999 76.759,68.425 75.853 C 68.656 75.360,68.806 74.918,68.758 74.870 C 68.710 74.821,68.567 75.037,68.439 75.349 M77.792 75.489 C 77.540 75.845,77.333 76.182,77.333 76.237 C 77.333 76.292,77.174 76.677,76.979 77.092 C 76.784 77.507,76.661 77.883,76.707 77.929 C 76.752 77.975,76.960 77.578,77.168 77.048 C 77.377 76.517,77.765 75.802,78.031 75.458 C 78.298 75.115,78.456 74.835,78.383 74.837 C 78.310 74.839,78.044 75.132,77.792 75.489 M16.017 75.345 C 15.981 75.905,16.548 77.165,17.112 77.776 C 17.438 78.128,17.602 78.267,17.477 78.083 C 17.352 77.900,17.205 77.712,17.150 77.667 C 16.953 77.502,16.586 76.736,16.312 75.917 C 16.159 75.458,16.027 75.201,16.017 75.345 M55.817 76.605 C 53.262 82.280,56.234 84.956,59.759 80.154 C 60.097 79.694,60.336 79.281,60.291 79.236 C 60.246 79.191,59.973 79.523,59.683 79.975 C 57.337 83.631,53.935 82.775,55.190 78.845 C 55.556 77.700,56.056 76.415,56.218 76.204 C 56.307 76.088,56.336 75.947,56.281 75.892 C 56.227 75.838,56.018 76.158,55.817 76.605 M41.917 76.588 C 41.550 76.814,41.362 76.996,41.500 76.993 C 41.637 76.990,41.975 76.804,42.250 76.578 C 42.882 76.060,42.769 76.063,41.917 76.588 M61.162 76.843 C 61.061 77.031,61.008 77.273,61.043 77.380 C 61.079 77.487,61.192 77.333,61.295 77.037 C 61.507 76.430,61.437 76.328,61.162 76.843 M32.362 77.049 C 32.259 77.172,31.761 77.490,31.255 77.755 C 30.748 78.020,30.333 78.299,30.333 78.374 C 30.333 78.540,30.823 78.292,31.833 77.615 C 32.776 76.984,32.739 77.016,32.635 76.913 C 32.587 76.865,32.464 76.926,32.362 77.049 M67.771 77.496 C 67.109 79.150,67.546 82.217,68.496 82.589 C 68.634 82.643,68.578 82.510,68.367 82.286 C 67.685 81.560,67.466 78.767,67.988 77.435 C 68.091 77.170,68.146 76.924,68.109 76.887 C 68.072 76.850,67.920 77.124,67.771 77.496 M40.363 77.763 C 39.980 78.091,39.669 78.447,39.672 78.555 C 39.675 78.662,39.844 78.563,40.047 78.333 C 40.251 78.104,40.634 77.748,40.898 77.542 C 41.162 77.335,41.307 77.167,41.219 77.167 C 41.132 77.167,40.746 77.435,40.363 77.763 M80.017 77.925 L 80.034 78.750 80.204 78.111 C 80.324 77.657,80.319 77.419,80.186 77.286 C 80.049 77.149,80.005 77.317,80.017 77.925 M71.930 77.518 C 71.887 77.646,71.781 78.012,71.695 78.333 C 71.610 78.654,71.382 79.310,71.189 79.792 C 70.996 80.273,70.873 80.667,70.915 80.667 C 71.157 80.667,72.253 77.531,72.074 77.351 C 72.037 77.315,71.973 77.390,71.930 77.518 M60.621 78.288 C 60.469 78.624,60.378 78.934,60.420 78.975 C 60.462 79.017,60.614 78.769,60.758 78.424 C 61.099 77.608,60.982 77.491,60.621 78.288 M76.519 78.278 C 76.509 78.385,76.451 78.610,76.392 78.778 C 76.308 79.015,76.331 79.041,76.491 78.893 C 76.605 78.788,76.662 78.563,76.618 78.393 C 76.575 78.223,76.530 78.171,76.519 78.278 M29.625 78.596 C 29.372 78.732,28.671 78.997,28.067 79.184 C 27.462 79.371,27.005 79.561,27.051 79.606 C 27.231 79.787,29.886 78.820,30.082 78.503 C 30.215 78.287,30.180 78.294,29.625 78.596 M18.111 78.711 C 18.236 78.913,19.842 79.692,20.016 79.634 C 20.101 79.605,19.690 79.357,19.101 79.082 C 18.512 78.807,18.067 78.640,18.111 78.711 M38.931 79.245 C 38.685 79.569,38.543 79.829,38.617 79.824 C 38.801 79.811,39.558 78.835,39.459 78.737 C 39.416 78.693,39.178 78.922,38.931 79.245 M79.838 79.571 C 79.744 79.819,79.667 80.126,79.667 80.253 C 79.667 80.380,79.601 80.657,79.521 80.867 C 79.441 81.078,79.285 81.550,79.174 81.917 C 78.936 82.703,78.621 83.449,78.057 84.558 C 77.831 85.002,77.732 85.313,77.835 85.249 C 78.110 85.079,79.075 82.892,79.501 81.474 C 79.703 80.801,79.936 80.032,80.018 79.765 C 80.211 79.139,80.063 78.979,79.838 79.571 M76.062 79.934 C 75.999 80.108,75.918 80.306,75.881 80.375 C 75.844 80.444,75.888 80.500,75.979 80.500 C 76.171 80.500,76.409 79.854,76.269 79.714 C 76.217 79.662,76.124 79.761,76.062 79.934 M21.347 79.893 C 21.385 79.926,21.717 79.999,22.083 80.055 C 22.537 80.125,22.670 80.106,22.500 79.998 C 22.272 79.853,21.185 79.754,21.347 79.893 M24.250 80.001 C 24.036 80.094,24.214 80.111,24.750 80.049 C 25.208 79.996,25.615 79.926,25.653 79.893 C 25.797 79.769,24.568 79.863,24.250 80.001 M37.981 80.625 C 37.358 81.637,37.165 82.168,37.188 82.811 L 37.208 83.417 37.319 82.743 C 37.380 82.373,37.672 81.604,37.968 81.035 C 38.567 79.884,38.574 79.662,37.981 80.625 M75.787 81.333 C 75.723 81.563,75.677 81.938,75.684 82.167 C 75.695 82.525,75.719 82.506,75.857 82.025 C 75.946 81.718,75.992 81.343,75.961 81.192 C 75.920 80.997,75.869 81.039,75.787 81.333 M70.075 81.680 C 70.014 81.779,69.728 82.004,69.440 82.180 C 69.152 82.355,69.009 82.499,69.122 82.499 C 69.336 82.500,70.505 81.514,70.302 81.505 C 70.238 81.502,70.136 81.581,70.075 81.680 M75.525 84.141 C 75.484 86.734,76.585 87.639,77.517 85.779 C 77.644 85.526,77.541 85.580,77.174 85.958 C 76.181 86.985,75.833 86.599,75.670 84.291 L 75.549 82.583 75.525 84.141 M37.182 84.219 C 37.173 84.386,37.254 84.684,37.360 84.883 C 37.604 85.339,38.000 85.741,38.000 85.532 C 38.000 85.445,37.887 85.281,37.749 85.166 C 37.611 85.052,37.431 84.724,37.348 84.437 C 37.265 84.151,37.190 84.053,37.182 84.219 M43.888 85.259 C 43.423 85.462,42.999 85.833,43.231 85.833 C 43.357 85.833,44.500 85.143,44.500 85.067 C 44.500 84.986,44.537 84.975,43.888 85.259 M63.240 85.250 C 63.418 85.387,63.623 85.500,63.695 85.500 C 63.767 85.500,63.980 85.800,64.167 86.167 C 64.354 86.533,64.544 86.833,64.590 86.833 C 65.001 86.833,63.802 85.290,63.250 85.109 C 62.922 85.001,62.922 85.003,63.240 85.250 M62.074 85.327 C 61.141 85.704,57.703 89.759,58.034 90.090 C 58.076 90.131,58.477 89.584,58.927 88.874 C 59.915 87.313,61.268 85.923,62.217 85.492 C 62.892 85.185,62.771 85.044,62.074 85.327 M39.334 86.208 C 39.334 86.277,39.816 86.333,40.407 86.333 C 40.997 86.333,41.515 86.277,41.558 86.208 C 41.600 86.140,41.117 86.083,40.485 86.083 C 39.852 86.083,39.334 86.140,39.334 86.208 M64.417 87.933 C 64.417 88.428,64.473 88.833,64.542 88.833 C 64.610 88.833,64.667 88.463,64.667 88.010 C 64.667 87.557,64.610 87.152,64.542 87.109 C 64.473 87.067,64.417 87.437,64.417 87.933 M64.254 89.787 C 63.966 91.322,62.911 93.696,61.836 95.228 C 61.459 95.765,61.180 96.236,61.218 96.273 C 61.558 96.614,64.192 91.359,64.431 89.862 C 64.569 89.001,64.414 88.935,64.254 89.787 M57.596 90.810 C 57.219 91.539,57.273 91.684,57.676 91.023 C 57.864 90.715,57.982 90.426,57.938 90.382 C 57.894 90.338,57.740 90.531,57.596 90.810 M47.209 91.055 C 46.723 91.231,46.820 91.251,48.156 91.251 C 49.412 91.250,49.587 91.218,49.280 91.048 C 48.826 90.795,47.918 90.798,47.209 91.055 M50.384 92.068 C 50.677 92.462,50.941 92.765,50.970 92.742 C 51.066 92.665,50.256 91.510,50.051 91.429 C 49.941 91.386,50.091 91.673,50.384 92.068 M72.108 91.618 C 71.334 92.025,69.082 94.500,69.486 94.500 C 69.585 94.500,69.667 94.436,69.667 94.358 C 69.667 94.065,71.423 92.295,72.117 91.888 C 74.031 90.766,74.567 93.013,73.238 96.583 C 73.168 96.771,73.177 96.859,73.259 96.784 C 73.615 96.459,74.022 94.966,74.110 93.667 C 74.251 91.575,73.552 90.860,72.108 91.618 M44.625 92.094 C 43.879 92.483,43.494 92.812,44.125 92.522 C 44.285 92.448,44.660 92.284,44.958 92.158 C 45.256 92.031,45.500 91.868,45.500 91.797 C 45.500 91.630,45.548 91.614,44.625 92.094 M56.847 92.384 C 55.576 95.350,55.410 97.757,56.417 98.625 C 56.863 99.010,57.718 99.120,58.147 98.849 C 58.290 98.758,58.092 98.735,57.630 98.787 C 56.190 98.949,55.461 97.078,56.156 95.000 C 56.232 94.771,56.392 94.246,56.511 93.833 C 56.629 93.421,56.868 92.795,57.041 92.442 C 57.215 92.090,57.316 91.760,57.266 91.710 C 57.216 91.660,57.027 91.964,56.847 92.384 M42.550 93.462 C 41.982 93.895,41.513 94.313,41.508 94.391 C 41.504 94.468,41.856 94.237,42.292 93.877 C 42.727 93.517,43.215 93.175,43.375 93.117 C 43.535 93.058,43.667 92.933,43.667 92.839 C 43.667 92.603,43.706 92.581,42.550 93.462 M51.053 94.167 C 51.053 94.763,51.084 95.006,51.121 94.708 C 51.158 94.410,51.158 93.923,51.121 93.625 C 51.084 93.327,51.053 93.571,51.053 94.167 M21.667 93.500 C 21.463 93.631,21.485 93.662,21.782 93.664 C 21.983 93.666,22.193 93.592,22.250 93.500 C 22.381 93.288,21.995 93.288,21.667 93.500 M23.583 93.500 C 24.046 93.699,24.373 93.699,24.250 93.500 C 24.193 93.408,23.945 93.339,23.698 93.345 C 23.298 93.356,23.286 93.372,23.583 93.500 M25.263 94.379 C 25.417 94.634,25.601 95.084,25.672 95.379 L 25.799 95.917 25.815 95.417 C 25.826 95.105,25.672 94.729,25.407 94.417 C 24.993 93.930,24.989 93.929,25.263 94.379 M18.458 94.960 C 18.206 95.116,18.000 95.307,18.000 95.383 C 18.000 95.460,18.225 95.362,18.500 95.167 C 18.775 94.971,19.000 94.778,19.000 94.739 C 19.000 94.632,18.960 94.649,18.458 94.960 M68.800 95.208 C 67.238 97.289,64.562 102.230,63.839 104.366 C 63.644 104.944,63.413 105.547,63.325 105.706 C 63.238 105.865,63.169 106.090,63.172 106.206 C 63.180 106.545,63.437 106.017,63.843 104.829 C 64.329 103.406,65.597 100.737,66.560 99.111 C 66.985 98.393,67.333 97.775,67.333 97.738 C 67.333 97.700,67.652 97.200,68.042 96.627 C 69.369 94.674,69.783 93.898,68.800 95.208 M16.292 96.845 C 15.563 97.584,15.014 98.236,15.071 98.293 C 15.128 98.350,15.296 98.214,15.444 97.990 C 15.593 97.766,16.195 97.115,16.783 96.542 C 17.370 95.969,17.798 95.500,17.734 95.500 C 17.670 95.500,17.021 96.105,16.292 96.845 M39.067 96.663 C 38.421 97.361,37.934 98.000,38.049 98.000 C 38.086 98.000,38.508 97.550,38.986 97.000 C 39.959 95.882,40.018 95.635,39.067 96.663 M25.533 96.367 C 25.423 96.477,25.333 96.697,25.333 96.857 C 25.333 97.016,25.258 97.193,25.167 97.250 C 25.075 97.307,25.000 97.439,25.000 97.543 C 25.000 97.851,25.277 97.478,25.559 96.792 C 25.839 96.113,25.836 96.064,25.533 96.367 M60.324 97.125 L 59.750 97.750 60.375 97.176 C 60.957 96.641,61.077 96.500,60.949 96.500 C 60.922 96.500,60.640 96.781,60.324 97.125 M50.318 97.203 C 49.528 99.113,47.355 101.917,45.521 103.394 C 45.211 103.643,44.995 103.884,45.040 103.929 C 45.171 104.059,47.882 101.339,48.624 100.333 C 49.684 98.896,50.787 96.898,50.616 96.727 C 50.577 96.688,50.443 96.902,50.318 97.203 M72.360 98.401 C 71.976 99.170,71.302 100.350,70.864 101.024 C 69.831 102.611,69.799 102.667,69.896 102.667 C 70.197 102.667,73.324 97.269,73.134 97.078 C 73.093 97.037,72.745 97.633,72.360 98.401 M23.750 99.136 C 23.062 99.889,22.853 100.181,23.242 99.848 C 24.042 99.163,25.257 97.748,24.958 97.847 C 24.935 97.855,24.392 98.435,23.750 99.136 M59.023 98.181 C 58.807 98.356,58.699 98.500,58.783 98.500 C 59.006 98.500,59.597 98.042,59.500 97.945 C 59.454 97.899,59.240 98.006,59.023 98.181 M37.072 99.125 C 36.714 99.652,36.381 100.121,36.332 100.167 C 36.067 100.413,35.145 102.386,35.387 102.188 C 35.541 102.062,35.667 101.865,35.667 101.751 C 35.667 101.509,37.208 99.092,37.714 98.542 C 37.903 98.335,37.982 98.167,37.890 98.167 C 37.798 98.167,37.429 98.598,37.072 99.125 M14.526 99.192 C 13.731 100.572,14.306 102.669,15.478 102.666 C 15.638 102.666,15.523 102.527,15.199 102.329 C 14.192 101.716,14.035 100.550,14.767 99.134 C 15.156 98.381,14.966 98.427,14.526 99.192 M21.457 100.986 C 20.702 101.470,20.702 101.565,21.458 101.184 C 21.848 100.987,22.167 100.791,22.167 100.747 C 22.167 100.604,21.926 100.685,21.457 100.986 M17.760 102.521 C 17.399 102.605,17.061 102.717,17.010 102.769 C 16.876 102.905,18.202 102.651,18.500 102.484 C 18.808 102.311,18.613 102.321,17.760 102.521 M69.252 103.286 L 68.960 103.750 69.346 103.380 C 69.558 103.176,69.690 102.967,69.638 102.916 C 69.587 102.865,69.413 103.032,69.252 103.286 M34.604 104.188 C 34.465 104.882,34.600 105.017,34.750 104.333 C 34.813 104.045,34.830 103.775,34.788 103.732 C 34.745 103.690,34.663 103.895,34.604 104.188 M67.500 105.310 C 66.721 106.123,65.783 107.031,65.417 107.328 C 65.050 107.626,64.841 107.842,64.953 107.810 C 65.472 107.657,69.330 103.833,68.964 103.833 C 68.938 103.833,68.279 104.498,67.500 105.310 M43.877 104.643 C 42.795 105.425,42.600 105.623,43.250 105.276 C 43.739 105.015,44.998 104.008,44.833 104.010 C 44.788 104.010,44.357 104.295,43.877 104.643 M41.171 106.160 C 40.775 106.411,41.045 106.464,41.500 106.224 C 41.730 106.103,41.804 106.005,41.667 106.005 C 41.529 106.005,41.306 106.075,41.171 106.160 M63.000 107.130 C 63.000 108.108,63.742 108.607,64.426 108.088 C 64.718 107.868,64.695 107.864,64.195 108.047 C 63.513 108.296,63.087 107.887,63.235 107.125 C 63.285 106.873,63.252 106.667,63.163 106.667 C 63.073 106.667,63.000 106.875,63.000 107.130 M38.690 107.025 C 38.382 107.113,38.168 107.224,38.215 107.270 C 38.310 107.366,39.667 107.030,39.667 106.910 C 39.667 106.800,39.334 106.839,38.690 107.025 M48.917 110.902 C 48.430 111.117,48.438 111.120,49.212 111.039 C 49.826 110.975,50.084 111.024,50.337 111.254 C 50.519 111.418,50.667 111.467,50.667 111.363 C 50.667 110.869,49.619 110.592,48.917 110.902 M46.583 112.098 L 46.083 112.528 46.667 112.151 C 47.415 111.668,47.417 111.667,47.236 111.667 C 47.152 111.668,46.858 111.862,46.583 112.098 M50.200 112.920 C 50.001 113.331,49.873 113.667,49.915 113.667 C 50.028 113.667,50.702 112.313,50.626 112.238 C 50.591 112.203,50.400 112.510,50.200 112.920 M45.401 112.933 C 45.078 113.221,45.032 113.307,45.264 113.192 C 45.595 113.026,46.127 112.500,45.963 112.500 C 45.920 112.500,45.667 112.695,45.401 112.933 M44.127 113.930 C 43.785 114.243,43.560 114.498,43.627 114.496 C 43.828 114.488,44.922 113.533,44.832 113.443 C 44.786 113.397,44.469 113.616,44.127 113.930 M49.498 113.958 C 49.497 114.027,49.188 114.406,48.812 114.799 C 48.435 115.193,48.162 115.551,48.206 115.595 C 48.310 115.699,49.667 114.222,49.667 114.004 C 49.667 113.910,49.629 113.833,49.583 113.833 C 49.538 113.833,49.499 113.890,49.498 113.958 M56.197 114.958 C 55.639 115.394,55.178 115.807,55.174 115.877 C 55.168 115.981,56.668 114.847,57.242 114.314 C 57.702 113.886,57.084 114.267,56.197 114.958 M42.316 115.708 C 40.504 117.560,39.743 119.200,40.667 119.265 C 40.811 119.275,40.829 119.253,40.708 119.212 C 40.009 118.977,40.770 117.499,42.496 115.741 C 43.076 115.150,43.502 114.667,43.443 114.667 C 43.384 114.667,42.876 115.135,42.316 115.708 M58.143 114.958 C 57.502 115.732,57.389 115.945,57.810 115.585 C 58.169 115.278,58.594 114.667,58.448 114.667 C 58.414 114.667,58.276 114.798,58.143 114.958 M53.642 117.208 C 52.085 118.697,51.584 119.667,52.372 119.667 C 52.471 119.667,52.458 119.567,52.339 119.424 C 52.077 119.107,52.302 118.781,53.869 117.208 C 54.532 116.544,55.036 116.000,54.990 116.000 C 54.943 116.000,54.337 116.544,53.642 117.208 M56.324 117.100 C 56.008 117.429,55.281 118.036,54.708 118.448 C 53.598 119.245,53.333 119.548,54.180 119.051 C 54.703 118.744,57.159 116.522,56.991 116.508 C 56.940 116.504,56.640 116.770,56.324 117.100 M45.833 117.308 C 45.833 117.386,45.530 117.586,45.159 117.754 C 44.482 118.059,44.053 118.427,44.616 118.219 C 45.401 117.929,46.403 117.167,46.000 117.167 C 45.908 117.167,45.833 117.230,45.833 117.308 M42.620 118.936 C 42.563 118.992,42.269 119.097,41.967 119.169 L 41.417 119.299 41.917 119.314 C 42.429 119.329,42.980 119.091,42.815 118.926 C 42.764 118.875,42.676 118.880,42.620 118.936 " stroke="none" fill="#507040" fill-rule="evenodd"></path><path id="path4" d="M72.083 37.333 C 72.027 37.425,72.135 37.500,72.323 37.500 C 72.512 37.500,72.667 37.425,72.667 37.333 C 72.667 37.242,72.559 37.167,72.427 37.167 C 72.294 37.167,72.140 37.242,72.083 37.333 M59.604 41.410 C 59.731 41.740,60.763 41.758,60.888 41.431 C 60.959 41.246,60.880 41.224,60.517 41.329 C 60.263 41.401,59.932 41.392,59.780 41.307 C 59.567 41.188,59.528 41.211,59.604 41.410 M78.296 43.152 C 78.351 43.528,78.288 43.643,77.974 43.738 C 77.732 43.811,77.665 43.889,77.797 43.944 C 78.334 44.164,78.859 43.075,78.363 42.769 C 78.288 42.722,78.258 42.895,78.296 43.152 M73.786 43.603 C 73.552 43.837,73.672 44.037,73.922 43.829 C 74.120 43.665,74.271 43.661,74.603 43.812 C 74.941 43.966,75.015 43.962,74.960 43.795 C 74.884 43.562,73.975 43.414,73.786 43.603 M75.776 45.167 C 75.826 45.487,75.867 45.926,75.867 46.142 C 75.867 46.400,75.923 46.477,76.031 46.369 C 76.140 46.260,76.109 45.928,75.941 45.393 C 75.747 44.780,75.707 44.725,75.776 45.167 M72.667 47.167 C 72.667 47.839,72.716 48.340,72.775 48.280 C 72.916 48.140,72.914 46.192,72.773 46.051 C 72.715 45.992,72.667 46.494,72.667 47.167 M76.100 47.683 C 76.039 48.065,76.021 48.410,76.061 48.450 C 76.101 48.490,76.186 48.212,76.250 47.833 C 76.314 47.454,76.331 47.109,76.289 47.067 C 76.246 47.024,76.161 47.301,76.100 47.683 M54.333 47.990 C 54.333 48.471,54.591 48.541,54.629 48.071 C 54.648 47.849,54.589 47.667,54.498 47.667 C 54.407 47.667,54.333 47.812,54.333 47.990 M75.833 49.149 C 75.833 49.745,75.212 50.500,74.722 50.500 C 74.273 50.500,73.333 49.642,73.333 49.232 C 73.333 49.105,73.265 49.000,73.182 49.000 C 73.099 49.000,73.070 49.150,73.118 49.333 C 73.166 49.517,73.263 49.667,73.333 49.667 C 73.404 49.667,73.501 49.818,73.549 50.002 C 73.688 50.533,74.765 50.916,75.241 50.605 C 75.755 50.268,76.259 49.192,76.016 48.949 C 75.884 48.817,75.833 48.872,75.833 49.149 M35.500 49.167 C 35.500 49.258,35.721 49.333,35.990 49.333 C 36.260 49.333,36.527 49.258,36.583 49.167 C 36.645 49.067,36.446 49.000,36.093 49.000 C 35.767 49.000,35.500 49.075,35.500 49.167 M38.000 49.167 C 38.328 49.379,39.000 49.379,39.000 49.167 C 39.000 49.075,38.719 49.001,38.375 49.003 C 37.910 49.004,37.814 49.046,38.000 49.167 M78.833 49.398 C 78.833 49.433,79.054 49.495,79.325 49.534 C 79.595 49.574,79.778 49.545,79.731 49.470 C 79.649 49.336,78.833 49.271,78.833 49.398 M33.246 49.874 C 33.065 49.974,32.871 50.124,32.815 50.208 C 32.759 50.293,32.646 50.350,32.565 50.337 C 32.483 50.323,32.304 50.483,32.167 50.693 C 31.932 51.052,31.953 51.048,32.505 50.629 C 32.829 50.384,33.273 50.117,33.492 50.036 C 33.711 49.955,33.820 49.845,33.733 49.791 C 33.647 49.738,33.428 49.775,33.246 49.874 M50.579 50.007 C 50.525 50.095,50.516 50.167,50.560 50.167 C 50.604 50.167,50.758 50.212,50.903 50.268 C 51.048 50.323,51.167 50.294,51.167 50.202 C 51.167 49.969,50.698 49.814,50.579 50.007 M52.833 50.045 C 52.498 50.184,52.472 50.231,52.703 50.287 C 53.032 50.366,53.617 50.090,53.396 49.959 C 53.316 49.912,53.063 49.950,52.833 50.045 M51.403 50.189 C 51.354 50.268,51.543 50.333,51.823 50.333 C 52.104 50.333,52.333 50.305,52.333 50.269 C 52.333 50.128,51.486 50.055,51.403 50.189 M78.583 50.128 C 78.492 50.195,78.400 50.438,78.379 50.667 C 78.358 50.898,78.387 50.972,78.443 50.833 C 78.499 50.696,78.613 50.452,78.695 50.292 C 78.859 49.973,78.837 49.941,78.583 50.128 M80.323 51.223 C 80.409 51.448,80.427 51.690,80.364 51.760 C 80.301 51.830,80.337 51.837,80.443 51.777 C 80.648 51.659,80.558 51.056,80.314 50.905 C 80.233 50.855,80.238 50.998,80.323 51.223 M78.362 53.282 C 78.344 54.623,78.399 55.521,78.503 55.585 C 78.596 55.643,78.632 55.754,78.583 55.833 C 78.535 55.912,78.583 56.031,78.690 56.098 C 78.831 56.185,78.850 56.107,78.757 55.818 C 78.686 55.597,78.574 54.442,78.509 53.250 L 78.390 51.083 78.362 53.282 M31.048 51.833 C 31.000 52.017,30.895 52.167,30.814 52.167 C 30.733 52.167,30.673 52.335,30.680 52.542 C 30.689 52.791,30.725 52.833,30.787 52.667 C 30.839 52.529,31.025 52.210,31.202 51.958 C 31.394 51.683,31.445 51.500,31.329 51.500 C 31.223 51.500,31.096 51.650,31.048 51.833 M80.566 52.264 C 80.621 52.409,80.667 52.751,80.667 53.023 C 80.667 53.312,80.736 53.477,80.833 53.417 C 81.051 53.282,81.049 52.550,80.831 52.415 C 80.737 52.357,80.704 52.240,80.757 52.155 C 80.810 52.070,80.766 52.000,80.659 52.000 C 80.550 52.000,80.509 52.116,80.566 52.264 M30.415 53.330 C 30.470 53.420,30.439 53.637,30.345 53.812 C 30.217 54.051,30.236 54.183,30.420 54.336 C 30.631 54.511,30.667 54.441,30.667 53.854 C 30.667 53.476,30.587 53.167,30.490 53.167 C 30.393 53.167,30.359 53.240,30.415 53.330 M80.917 53.999 C 80.859 54.181,80.852 54.395,80.901 54.474 C 80.949 54.553,81.000 55.348,81.014 56.240 C 81.030 57.338,81.093 57.807,81.207 57.693 C 81.314 57.586,81.335 56.979,81.264 56.053 C 81.202 55.245,81.152 54.377,81.153 54.125 C 81.153 53.585,81.064 53.536,80.917 53.999 M30.692 55.333 C 30.788 55.608,30.936 55.833,31.021 55.833 C 31.106 55.833,31.059 55.608,30.917 55.333 C 30.774 55.058,30.626 54.833,30.588 54.833 C 30.549 54.833,30.596 55.058,30.692 55.333 M31.833 56.854 C 32.676 57.625,33.519 58.119,34.161 58.220 C 34.302 58.242,34.515 58.321,34.636 58.397 C 34.757 58.472,34.888 58.501,34.928 58.461 C 35.004 58.384,34.694 58.225,33.502 57.728 C 33.090 57.557,32.394 57.098,31.954 56.708 C 31.515 56.319,31.102 56.003,31.036 56.008 C 30.970 56.012,31.329 56.392,31.833 56.854 M79.721 58.433 C 80.118 58.861,80.663 58.927,80.784 58.564 C 80.823 58.449,80.696 58.406,80.455 58.452 C 80.223 58.496,79.974 58.419,79.844 58.263 C 79.724 58.119,79.557 58.000,79.473 58.000 C 79.389 58.000,79.501 58.195,79.721 58.433 M35.167 58.500 C 35.167 58.592,35.275 58.667,35.407 58.667 C 35.539 58.667,35.693 58.592,35.750 58.500 C 35.807 58.408,35.699 58.333,35.510 58.333 C 35.321 58.333,35.167 58.408,35.167 58.500 M36.167 58.667 C 36.167 58.758,36.373 58.828,36.625 58.822 C 37.031 58.811,37.045 58.794,36.750 58.667 C 36.295 58.471,36.167 58.471,36.167 58.667 M38.000 58.666 C 37.478 58.775,37.510 58.787,38.307 58.788 C 38.862 58.789,39.114 58.735,38.974 58.647 C 38.851 58.569,38.712 58.514,38.667 58.524 C 38.621 58.535,38.321 58.599,38.000 58.666 M50.167 60.465 C 49.938 60.500,49.691 60.585,49.619 60.654 C 49.546 60.723,49.899 60.723,50.402 60.655 C 51.276 60.536,52.201 60.643,52.689 60.918 C 52.848 61.008,52.841 60.966,52.664 60.777 C 52.412 60.508,51.030 60.335,50.167 60.465 M75.350 60.954 C 75.066 61.203,74.833 61.480,74.833 61.568 C 74.833 61.657,75.044 61.527,75.301 61.281 C 76.070 60.544,77.069 60.869,77.651 62.046 C 77.840 62.427,78.015 62.611,78.084 62.499 C 78.147 62.397,78.079 62.180,77.933 62.018 C 77.787 61.856,77.667 61.641,77.667 61.541 C 77.667 61.289,76.829 60.650,76.647 60.762 C 76.566 60.812,76.500 60.774,76.500 60.677 C 76.500 60.346,75.869 60.498,75.350 60.954 M53.000 61.000 C 53.000 61.092,53.100 61.167,53.222 61.167 C 53.344 61.167,53.649 61.560,53.898 62.042 C 54.233 62.688,54.324 62.786,54.247 62.417 C 54.189 62.142,54.073 61.892,53.988 61.861 C 53.903 61.831,53.833 61.711,53.833 61.595 C 53.833 61.381,53.315 60.833,53.112 60.833 C 53.050 60.833,53.000 60.908,53.000 61.000 M74.611 61.944 C 74.422 62.134,74.483 64.667,74.677 64.667 C 74.774 64.667,74.807 64.742,74.750 64.833 C 74.693 64.925,74.725 65.000,74.819 65.000 C 74.973 65.000,74.961 64.699,74.762 63.651 C 74.734 63.505,74.765 63.036,74.829 62.610 C 74.940 61.883,74.874 61.682,74.611 61.944 M81.423 62.823 C 81.363 62.921,81.393 63.000,81.490 63.000 C 81.599 63.000,81.667 63.481,81.667 64.250 C 81.667 64.972,81.737 65.500,81.833 65.500 C 82.091 65.500,82.029 63.302,81.761 62.948 C 81.616 62.758,81.492 62.712,81.423 62.823 M78.196 63.333 C 78.350 63.766,78.420 63.836,78.468 63.605 C 78.503 63.434,78.410 63.172,78.260 63.022 C 78.009 62.771,78.004 62.794,78.196 63.333 M80.921 63.059 C 80.873 63.210,80.798 63.446,80.755 63.583 C 80.712 63.721,80.741 63.833,80.819 63.833 C 80.897 63.833,81.001 63.627,81.049 63.375 C 81.148 62.862,81.056 62.636,80.921 63.059 M53.640 64.833 C 53.322 65.475,53.084 66.000,53.112 66.000 C 53.234 66.000,54.052 64.568,54.175 64.139 C 54.381 63.418,54.272 63.560,53.640 64.833 M45.542 65.250 C 45.544 65.617,45.578 65.747,45.618 65.540 C 45.658 65.332,45.656 65.032,45.615 64.873 C 45.573 64.714,45.540 64.883,45.542 65.250 M80.365 65.584 C 80.380 65.966,80.437 66.104,80.525 65.966 C 80.712 65.671,80.701 65.208,80.505 65.086 C 80.410 65.028,80.352 65.235,80.365 65.584 M74.833 65.583 C 74.833 65.721,74.908 65.833,75.000 65.833 C 75.092 65.833,75.167 65.975,75.167 66.149 C 75.167 66.322,75.280 66.508,75.418 66.561 C 75.616 66.637,75.598 66.518,75.331 65.995 C 74.972 65.292,74.833 65.177,74.833 65.583 M78.189 66.625 C 78.078 66.831,78.039 67.000,78.102 67.000 C 78.164 67.000,78.005 67.195,77.747 67.434 C 77.382 67.772,77.347 67.855,77.588 67.809 C 77.942 67.741,78.564 66.776,78.459 66.460 C 78.415 66.330,78.314 66.392,78.189 66.625 M75.626 66.944 C 75.741 66.990,75.794 67.096,75.743 67.178 C 75.636 67.351,76.628 67.999,77.000 67.999 C 77.137 67.999,77.025 67.861,76.750 67.693 C 76.475 67.525,76.147 67.263,76.021 67.110 C 75.895 66.958,75.708 66.839,75.605 66.846 C 75.488 66.855,75.496 66.891,75.626 66.944 M81.383 69.500 C 81.383 70.004,81.415 70.210,81.453 69.958 C 81.491 69.706,81.491 69.294,81.453 69.042 C 81.415 68.790,81.383 68.996,81.383 69.500 M80.000 70.490 C 80.000 71.229,80.059 71.833,80.132 71.833 C 80.320 71.833,80.343 69.359,80.156 69.243 C 80.064 69.187,80.000 69.700,80.000 70.490 M58.294 73.153 C 57.995 73.420,57.793 73.682,57.845 73.734 C 57.897 73.786,58.193 73.567,58.502 73.248 C 59.186 72.542,59.048 72.480,58.294 73.153 M61.121 73.538 C 61.213 73.655,61.330 73.862,61.381 74.000 C 61.444 74.171,61.478 74.137,61.487 73.893 C 61.494 73.696,61.377 73.488,61.226 73.431 C 61.022 73.352,60.995 73.379,61.121 73.538 M79.920 75.351 C 80.016 75.849,80.167 75.963,80.167 75.538 C 80.167 75.344,80.096 75.142,80.009 75.089 C 79.921 75.035,79.882 75.151,79.920 75.351 M61.358 75.778 C 61.345 75.977,61.285 76.277,61.225 76.445 C 61.143 76.680,61.165 76.707,61.322 76.562 C 61.434 76.459,61.494 76.159,61.455 75.895 C 61.404 75.558,61.376 75.523,61.358 75.778 M75.600 82.778 C 75.754 83.416,75.833 83.477,75.833 82.954 C 75.833 82.715,75.755 82.471,75.660 82.413 C 75.546 82.342,75.526 82.468,75.600 82.778 " stroke="none" fill="#540440" fill-rule="evenodd"></path></g></svg>